<svg width="19" height="19" viewBox="0 0 19 19" fill="none" xmlns="http://www.w3.org/2000/svg">
<g clip-path="url(#clip0_31_6239)">
<path fill-rule="evenodd" clip-rule="evenodd" d="M5.4758 1.78125C3.68546 1.78125 2.178 3.10157 2.01333 4.85061C1.71682 7.99998 1.70462 10.5964 1.97564 13.7093L3.14361 11.8406C4.63621 9.45241 8.02177 9.20879 9.8409 11.3587L11.3768 13.1738C12.7087 11.1872 15.7525 11.1898 17.0532 13.2643C17.1542 12.0532 17.2088 10.9177 17.2175 9.79227C17.2201 9.46435 17.4879 9.2006 17.8159 9.20315C18.1438 9.20568 18.4075 9.47358 18.405 9.80148C18.3938 11.2435 18.3094 12.6962 18.1526 14.2844C17.9173 16.6671 15.8713 18.4062 13.5112 18.4062H5.47957C3.10837 18.4062 1.0578 16.6501 0.832849 14.2566C0.514905 10.8735 0.513795 8.10908 0.831062 4.73928C1.05629 2.3471 3.10659 0.59375 5.4758 0.59375H11.5626C11.8905 0.59375 12.1563 0.859581 12.1563 1.1875C12.1563 1.51542 11.8905 1.78125 11.5626 1.78125H5.4758ZM16.6783 15.2381L16.6778 15.2368L16.2015 14.1836C15.4185 12.4522 12.9853 12.4632 12.1924 14.1378L14.6443 17.0354C15.5447 16.7345 16.2843 16.0841 16.6783 15.2381ZM5.47957 17.2188C4.12445 17.2188 2.93142 16.4623 2.35934 15.336L4.15058 12.47C5.21675 10.7641 7.635 10.5901 8.93439 12.1257L13.2439 17.2188H5.47957Z" fill="#031D4D"/>
<path d="M15.7344 6.17147L17.3712 4.35281C17.5905 4.10908 17.966 4.0893 18.2097 4.30867C18.4535 4.52803 18.4732 4.90345 18.2538 5.14719L16.4646 7.13521C15.757 7.92143 14.5242 7.92143 13.8166 7.13521L12.0274 5.14719C11.8081 4.90345 11.8278 4.52803 12.0716 4.30867C12.3153 4.0893 12.6907 4.10908 12.9101 4.35281L14.5469 6.17147V1.1875C14.5469 0.859581 14.8127 0.59375 15.1406 0.59375C15.4686 0.59375 15.7344 0.859581 15.7344 1.1875V6.17147Z" fill="#3576BA"/>
</g>
<defs>
<clipPath id="clip0_31_6239">
<rect width="19" height="19" fill="white"/>
</clipPath>
</defs>
</svg>
