<svg width="25" height="23" viewBox="0 0 25 23" fill="none" xmlns="http://www.w3.org/2000/svg">
<path d="M19.6889 10.6211H21.4591V16.8168C21.4591 17.521 21.1793 18.1964 20.6814 18.6944C20.1834 19.1923 19.508 19.4721 18.8038 19.4721H10.4396L6.06728 22.8266C5.9415 22.9196 5.79334 22.9776 5.63786 22.9947C5.48239 23.0118 5.32516 22.9874 5.18218 22.924C5.02494 22.8574 4.89031 22.7468 4.79451 22.6055C4.69871 22.4641 4.64584 22.2981 4.64227 22.1274V19.4721H2.87208C2.16786 19.4721 1.49247 19.1923 0.994512 18.6944C0.496549 18.1964 0.216797 17.521 0.216797 16.8168V6.19567C0.216797 5.49144 0.496549 4.81606 0.994512 4.3181C1.49247 3.82013 2.16786 3.54038 2.87208 3.54038H14.3783V5.31057H2.87208C2.63734 5.31057 2.41221 5.40382 2.24623 5.56981C2.08024 5.7358 1.98699 5.96092 1.98699 6.19567V16.8168C1.98699 17.0515 2.08024 17.2767 2.24623 17.4427C2.41221 17.6087 2.63734 17.7019 2.87208 17.7019H5.52737C5.76211 17.7019 5.98724 17.7952 6.15322 17.9611C6.31921 18.1271 6.41246 18.3523 6.41246 18.587V20.3572L9.59881 17.9143C9.7533 17.7944 9.94315 17.7291 10.1387 17.7285H18.8038C19.0385 17.7285 19.2637 17.6352 19.4297 17.4692C19.5956 17.3032 19.6889 17.0781 19.6889 16.8434V10.6211ZM24.9995 3.54038H21.4591V0H19.6889V3.54038H16.1485V5.31057H19.6889V8.85095H21.4591V5.31057H24.9995V3.54038Z" fill="#818181"/>
</svg>
