<svg width="24" height="25" viewBox="0 0 24 25" fill="none" xmlns="http://www.w3.org/2000/svg">
<path d="M5.57234 8.48336C5.28584 6.59636 6.61634 4.90136 8.64884 4.28036C9.00952 4.17008 9.39868 4.20147 9.73703 4.36813C10.0754 4.5348 10.3374 4.82419 10.4698 5.17736L11.1223 6.91736C11.2274 7.19728 11.2464 7.5022 11.1769 7.79299C11.1074 8.08378 10.9526 8.34717 10.7323 8.54936L8.79134 10.3269C8.69567 10.4147 8.62437 10.5257 8.58441 10.6493C8.54446 10.7729 8.5372 10.9047 8.56334 11.0319L8.58134 11.1099L8.62784 11.3049C8.86923 12.2523 9.23703 13.163 9.72134 14.0124C10.2489 14.9149 10.9036 15.7368 11.6653 16.4529L11.7253 16.5069C11.8222 16.5929 11.9398 16.6523 12.0665 16.6794C12.1932 16.7065 12.3247 16.7002 12.4483 16.6614L14.9578 15.8709C15.243 15.7813 15.5485 15.779 15.835 15.8643C16.1215 15.9495 16.376 16.1185 16.5658 16.3494L17.7538 17.7909C18.2488 18.3909 18.1888 19.2729 17.6203 19.8024C16.0648 21.2529 13.9258 21.5499 12.4378 20.3544C10.6139 18.8831 9.07627 17.0887 7.90184 15.0609C6.71788 13.0346 5.92853 10.803 5.57234 8.48336ZM10.1353 11.1309L11.7433 9.65486C12.1841 9.25066 12.494 8.72396 12.6332 8.14237C12.7725 7.56078 12.7347 6.95084 12.5248 6.39086L11.8738 4.65086C11.6074 3.94057 11.0802 3.35854 10.3997 3.02329C9.71912 2.68804 8.93639 2.62477 8.21084 2.84636C5.68634 3.61886 3.65984 5.88236 4.08884 8.70986C4.38884 10.6839 5.08034 13.1949 6.60584 15.8169C7.87291 18.0034 9.53153 19.9381 11.4988 21.5244C13.7308 23.3169 16.7098 22.7049 18.6448 20.9019C19.1985 20.3863 19.5346 19.679 19.5845 18.9241C19.6344 18.1692 19.3943 17.4238 18.9133 16.8399L17.7253 15.3969C17.3453 14.9356 16.8361 14.5983 16.2631 14.4284C15.6901 14.2584 15.0794 14.2634 14.5093 14.4429L12.4258 15.0984C11.8879 14.5437 11.4167 13.928 11.0218 13.2639C10.6404 12.5924 10.3432 11.8765 10.1368 11.1324" fill="white"/>
</svg>
