<svg width="25" height="24" viewBox="0 0 25 24" fill="none" xmlns="http://www.w3.org/2000/svg">
<g clip-path="url(#clip0_1258_2158)">
<path d="M3.39262 18.719C2.59066 18.719 1.80717 18.5144 1.09711 18.1156C0.731769 17.9275 0.590267 17.4568 0.80852 17.1027C1.53367 15.9439 1.79553 14.5275 1.46352 13.1954C1.11938 11.8144 0.621455 10.6513 0.625019 9.18939C0.637375 4.06033 4.90649 -0.0977534 10.0303 0.00174936C14.9793 0.10143 19.058 4.26165 19.058 9.21196C19.0581 15.6771 12.2825 20.2162 6.30089 17.7197C5.47642 18.3668 4.4401 18.719 3.39262 18.719ZM2.41815 17.1405C3.54493 17.4905 4.81221 17.2109 5.68112 16.3709C5.89522 16.1638 6.21547 16.1117 6.4841 16.2402C11.6052 18.6887 17.6323 14.8509 17.6323 9.21196C17.6323 5.00409 14.2091 1.51187 10.0016 1.42716C5.66556 1.34103 2.06119 4.85279 2.05073 9.19283C2.04734 10.5814 2.58911 11.6912 2.88519 13.0065C3.19712 14.3928 3.03281 15.8586 2.41815 17.1405Z" fill="#818181"/>
<path d="M21.8573 24.0002C20.8099 24.0002 19.7736 23.648 18.9492 23.0009C15.7681 24.3286 11.9841 23.724 9.37584 21.4714C9.07787 21.2141 9.04496 20.764 9.30224 20.466C9.55958 20.168 10.0097 20.135 10.3077 20.3924C12.621 22.3902 16.0089 22.8396 18.7659 21.5215C19.0345 21.393 19.3547 21.4451 19.5689 21.6522C20.4378 22.4921 21.7051 22.7719 22.8319 22.4217C22.1068 20.9094 22.0063 19.1767 22.5682 17.5727C22.5733 17.5582 22.5788 17.544 22.5848 17.5299C22.9951 16.5625 23.2019 15.5343 23.1994 14.4741C23.1948 12.6047 22.573 10.8755 21.4009 9.47326C21.1485 9.17113 21.1887 8.72161 21.4908 8.46914C21.7928 8.21661 22.2424 8.25689 22.4949 8.55896C23.8633 10.1962 24.6198 12.2956 24.6251 14.4706C24.6281 15.7164 24.3864 16.9254 23.9067 18.0645C23.4028 19.5231 23.6346 21.0848 24.4414 22.3838C24.6599 22.738 24.5183 23.2087 24.1528 23.397C23.4429 23.7955 22.6592 24.0002 21.8573 24.0002Z" fill="#818181"/>
<path d="M9.84282 10.3749C10.4658 10.3749 10.9708 9.87013 10.9708 9.2475C10.9708 8.62486 10.4658 8.12012 9.84282 8.12012C9.21985 8.12012 8.71484 8.62486 8.71484 9.2475C8.71484 9.87013 9.21985 10.3749 9.84282 10.3749Z" fill="#818181"/>
<path d="M5.68657 10.3749C6.30953 10.3749 6.81454 9.87013 6.81454 9.2475C6.81454 8.62486 6.30953 8.12012 5.68657 8.12012C5.06361 8.12012 4.55859 8.62486 4.55859 9.2475C4.55859 9.87013 5.06361 10.3749 5.68657 10.3749Z" fill="#818181"/>
<path d="M13.9971 10.3749C14.6201 10.3749 15.1251 9.87013 15.1251 9.2475C15.1251 8.62486 14.6201 8.12012 13.9971 8.12012C13.3742 8.12012 12.8691 8.62486 12.8691 9.2475C12.8691 9.87013 13.3742 10.3749 13.9971 10.3749Z" fill="#818181"/>
</g>
<defs>
<clipPath id="clip0_1258_2158">
<rect width="24" height="24" fill="white" transform="translate(0.625)"/>
</clipPath>
</defs>
</svg>
