<svg width="33" height="33" viewBox="0 0 33 33" fill="none" xmlns="http://www.w3.org/2000/svg">
<circle cx="16.5" cy="16.5" r="16" stroke="white"/>
<g clip-path="url(#clip0_42_10792)">
<path d="M23.15 21.0054C22.708 20.6113 22.321 20.1596 21.9995 19.6624C21.6486 18.9761 21.4382 18.2266 21.3808 17.4579V15.1937C21.3838 13.9863 20.9458 12.8193 20.1491 11.912C19.3524 11.0047 18.2518 10.4196 17.0541 10.2666V9.67535C17.0541 9.51307 16.9897 9.35744 16.8749 9.24269C16.7602 9.12794 16.6045 9.06348 16.4423 9.06348C16.28 9.06348 16.1243 9.12794 16.0096 9.24269C15.8948 9.35744 15.8304 9.51307 15.8304 9.67535V10.2758C14.6434 10.4398 13.5561 11.0285 12.7699 11.9327C11.9836 12.8369 11.5517 13.9954 11.5541 15.1937V17.4579C11.4967 18.2266 11.2864 18.9761 10.9354 19.6624C10.6195 20.1585 10.2388 20.6101 9.80329 21.0054C9.7544 21.0483 9.71522 21.1012 9.68835 21.1604C9.66148 21.2197 9.64754 21.284 9.64746 21.3491V21.9724C9.64746 22.094 9.69575 22.2106 9.7817 22.2965C9.86766 22.3825 9.98424 22.4308 10.1058 22.4308H22.8475C22.969 22.4308 23.0856 22.3825 23.1716 22.2965C23.2575 22.2106 23.3058 22.094 23.3058 21.9724V21.3491C23.3057 21.284 23.2918 21.2197 23.2649 21.1604C23.238 21.1012 23.1988 21.0483 23.15 21.0054ZM10.6008 21.5141C11.0272 21.1022 11.4027 20.6405 11.7191 20.1391C12.1612 19.3102 12.4192 18.3956 12.4754 17.4579V15.1937C12.4572 14.6565 12.5473 14.1212 12.7403 13.6196C12.9333 13.118 13.2253 12.6604 13.5989 12.274C13.9724 11.8876 14.4199 11.5803 14.9147 11.3704C15.4095 11.1605 15.9415 11.0524 16.4789 11.0524C17.0164 11.0524 17.5483 11.1605 18.0431 11.3704C18.5379 11.5803 18.9854 11.8876 19.359 12.274C19.7325 12.6604 20.0245 13.118 20.2175 13.6196C20.4105 14.1212 20.5006 14.6565 20.4825 15.1937V17.4579C20.5386 18.3956 20.7966 19.3102 21.2387 20.1391C21.5551 20.6405 21.9306 21.1022 22.357 21.5141H10.6008Z" fill="white"/>
<path d="M16.4998 23.9605C16.7885 23.9539 17.0656 23.8453 17.282 23.6541C17.4984 23.4629 17.6402 23.2012 17.6823 22.9155H15.2715C15.3148 23.209 15.4632 23.4768 15.6892 23.669C15.9151 23.8612 16.2032 23.9648 16.4998 23.9605Z" fill="white"/>
</g>
<defs>
<clipPath id="clip0_42_10792">
<rect width="16.5" height="16.5" fill="white" transform="translate(8.25 8.25)"/>
</clipPath>
</defs>
</svg>
