<svg width="25" height="24" viewBox="0 0 25 24" fill="none" xmlns="http://www.w3.org/2000/svg">
<path d="M16.1935 10.6704C15.9028 10.3771 15.4329 10.3771 15.1422 10.6704L12.7927 13.0396L10.4432 10.6696C10.1525 10.3764 9.68258 10.3764 9.39186 10.6696C9.10115 10.9629 9.10115 11.4369 9.39186 11.7301L11.7414 14.1001L9.39186 16.4701C9.10115 16.7634 9.10115 17.2374 9.39186 17.5306C9.53685 17.6769 9.72719 17.7504 9.91753 17.7504C10.1079 17.7504 10.2982 17.6769 10.4432 17.5306L12.7927 15.1606L15.1422 17.5306C15.2872 17.6769 15.4775 17.7504 15.6679 17.7504C15.8582 17.7504 16.0486 17.6769 16.1935 17.5306C16.4843 17.2374 16.4843 16.7634 16.1935 16.4701L13.844 14.1001L16.1935 11.7301C16.4835 11.4376 16.4835 10.9629 16.1935 10.6704Z" fill="#FF0000"/>
<path d="M6.84888 23.2498H18.7347C20.0879 23.2498 21.1891 22.1398 21.1891 20.7741V7.6333C21.1891 7.21855 20.856 6.8833 20.4456 6.8833C20.0351 6.8833 19.702 7.21855 19.702 7.6333V20.7741C19.702 21.3118 19.2686 21.7498 18.7347 21.7498H6.84888C6.31578 21.7498 5.88156 21.3118 5.88156 20.7741V7.6333C5.88156 7.21855 5.54847 6.8833 5.13805 6.8833C4.72763 6.8833 4.39453 7.21855 4.39453 7.6333V20.7741C4.39453 22.1398 5.49568 23.2498 6.84888 23.2498Z" fill="#FF0000"/>
<path d="M3.4525 5.22225H9.32851H16.2588H22.1348C22.5452 5.22225 22.8783 4.887 22.8783 4.47225C22.8783 4.0575 22.5452 3.72225 22.1348 3.72225H17.0023V1.5C17.0023 1.08525 16.6692 0.75 16.2588 0.75H9.32851C8.91809 0.75 8.58499 1.08525 8.58499 1.5V3.72225H3.4525C3.04208 3.72225 2.70898 4.0575 2.70898 4.47225C2.70898 4.887 3.04134 5.22225 3.4525 5.22225ZM10.0713 2.25H15.5146V3.72225H10.0713V2.25Z" fill="#FF0000"/>
</svg>
