<svg width="25" height="24" viewBox="0 0 25 24" fill="none" xmlns="http://www.w3.org/2000/svg">
<path d="M20.182 10.406C19.7971 10.406 19.485 10.7208 19.485 11.1091V21.4219C19.485 22.0681 18.9638 22.5938 18.3232 22.5938H3.4524C2.81179 22.5938 2.29062 22.0681 2.29062 21.4219V6.42147C2.29062 5.77527 2.81179 5.24956 3.4524 5.24956H13.6761C14.061 5.24956 14.3731 4.93473 14.3731 4.54641C14.3731 4.15808 14.061 3.84326 13.6761 3.84326H3.4524C2.04307 3.84326 0.896484 4.99984 0.896484 6.42147V21.4219C0.896484 22.8436 2.04307 24.0001 3.4524 24.0001H18.3232C19.7325 24.0001 20.8791 22.8436 20.8791 21.4219V11.1091C20.8791 10.7208 20.567 10.406 20.182 10.406Z" fill="#818181"/>
<path d="M24.2139 1.80566L22.8995 0.479757C22.2654 -0.159919 21.2335 -0.159919 20.5993 0.479757L10.0841 11.0867C9.9868 11.1848 9.92048 11.3099 9.89343 11.446L9.23619 14.7607C9.19051 14.9912 9.26203 15.2295 9.42686 15.3958C9.55889 15.5289 9.73673 15.6017 9.91974 15.6017C9.96523 15.6017 10.011 15.5972 10.0564 15.5881L13.3424 14.9251C13.4774 14.8979 13.6013 14.8309 13.6986 14.7328L24.2139 4.1259C24.2139 4.1259 24.214 4.1259 24.214 4.12586C24.8481 3.48623 24.8481 2.44538 24.2139 1.80566ZM12.8621 13.5879L10.8084 14.0023L11.2192 11.9306L19.7778 3.29722L21.4208 4.95458L12.8621 13.5879ZM23.2281 3.13151L22.4066 3.96019L20.7636 2.30283L21.585 1.47419C21.6756 1.38279 21.8231 1.38274 21.9137 1.47415L23.2281 2.80005C23.3187 2.89141 23.3187 3.04015 23.2281 3.13151Z" fill="#818181"/>
</svg>
