<svg width="18" height="18" viewBox="0 0 18 18" fill="none" xmlns="http://www.w3.org/2000/svg">
<path d="M2.0217 1H16.2439C16.4797 1 16.7058 1.09514 16.8725 1.26448C17.0392 1.43382 17.1328 1.6635 17.1328 1.90299V3.33512C17.1328 3.57459 17.0391 3.80423 16.8724 3.97354L11.171 9.76529C11.0043 9.9346 10.9106 10.1642 10.9106 10.4037V16.097C10.9106 16.2343 10.8798 16.3697 10.8205 16.4931C10.7612 16.6164 10.6751 16.7244 10.5686 16.8089C10.462 16.8933 10.338 16.952 10.2058 16.9804C10.0736 17.0089 9.93677 17.0063 9.8057 16.9729L8.02792 16.5214C7.8357 16.4725 7.66509 16.3598 7.54317 16.2011C7.42126 16.0424 7.35504 15.8468 7.35503 15.6455V10.4037C7.35498 10.1642 7.2613 9.9346 7.09459 9.76529L1.39326 3.97354C1.22655 3.80423 1.13286 3.57459 1.13281 3.33512V1.90299C1.13281 1.6635 1.22646 1.43382 1.39316 1.26448C1.55986 1.09514 1.78595 1 2.0217 1Z" stroke="#2250A5" stroke-width="1.5" stroke-linecap="round" stroke-linejoin="round"/>
</svg>
