<svg width="170" height="163" viewBox="0 0 170 163" fill="none" xmlns="http://www.w3.org/2000/svg">
<path d="M152.319 24.7389C141.919 1.02574 116.956 -7.90274 97.2602 8.01888C89.569 14.2304 84.7703 24.1161 75.3528 28.0829C66.5163 31.8031 55.3222 30.7079 45.7667 32.7227C25.4185 36.9863 -1.97721 53.1629 0.11279 78.0882C1.02821 89.0064 8.39337 101.133 12.0341 111.348C16.2141 123.103 18.7221 137.808 29.7866 144.834C48.7554 156.898 71.6368 147.037 88.7246 137.31C97.9206 132.081 102.983 128.867 112.885 130.66C122.052 132.332 130.307 138.184 139.265 131.241C145.991 126.029 146.547 115.466 152.194 109.263C158.556 102.274 165.005 101.768 168.312 91.2636C172.32 78.5188 166.414 70.5559 162.422 59.1695C158.43 47.7832 157.218 35.8953 152.319 24.7389Z" fill="#3576BA"/>
<g opacity="0.7">
<path d="M152.319 24.7389C141.919 1.02574 116.956 -7.90274 97.2602 8.01888C89.569 14.2304 84.7703 24.1161 75.3528 28.0829C66.5163 31.8031 55.3222 30.7079 45.7667 32.7227C25.4185 36.9863 -1.97721 53.1629 0.11279 78.0882C1.02821 89.0064 8.39337 101.133 12.0341 111.348C16.2141 123.103 18.7221 137.808 29.7866 144.834C48.7554 156.898 71.6368 147.037 88.7246 137.31C97.9206 132.081 102.983 128.867 112.885 130.66C122.052 132.332 130.307 138.184 139.265 131.241C145.991 126.029 146.547 115.466 152.194 109.263C158.556 102.274 165.005 101.768 168.312 91.2636C172.32 78.5188 166.414 70.5559 162.422 59.1695C158.43 47.7832 157.218 35.8953 152.319 24.7389Z" fill="white"/>
</g>
<path d="M121.738 7.54248H56.7682C52.2827 7.54248 48.6465 11.1787 48.6465 15.6642V152.827C48.6465 157.312 52.2827 160.948 56.7682 160.948H121.738C126.223 160.948 129.86 157.312 129.86 152.827V15.6642C129.86 11.1787 126.223 7.54248 121.738 7.54248Z" fill="#263238"/>
<path d="M126.248 24.3877H52.2539V144.103H126.248V24.3877Z" fill="white" stroke="#263238" stroke-width="1.33739" stroke-miterlimit="10"/>
<path d="M100.594 72.864C106.857 66.6005 106.857 56.4454 100.594 50.1819C94.3304 43.9184 84.1753 43.9184 77.9118 50.1819C71.6484 56.4454 71.6484 66.6005 77.9118 72.864C84.1753 79.1275 94.3304 79.1275 100.594 72.864Z" fill="#3576BA"/>
<path d="M110.31 136.575H68.2007C68.1059 136.575 68.012 136.557 67.9243 136.521C67.8366 136.486 67.7568 136.433 67.6896 136.366C67.6224 136.299 67.5691 136.22 67.5327 136.132C67.4963 136.045 67.4775 135.951 67.4776 135.856C67.477 135.761 67.4953 135.667 67.5315 135.579C67.5676 135.491 67.6209 135.411 67.6881 135.343C67.7554 135.276 67.8353 135.223 67.9233 135.187C68.0113 135.151 68.1056 135.132 68.2007 135.133H110.31C110.405 135.133 110.499 135.152 110.586 135.188C110.674 135.224 110.753 135.278 110.82 135.345C110.887 135.412 110.94 135.492 110.975 135.58C111.011 135.667 111.03 135.761 111.029 135.856C111.029 136.047 110.953 136.23 110.818 136.364C110.684 136.499 110.501 136.575 110.31 136.575Z" fill="#3576BA"/>
<path d="M111.681 86.5781H66.8251C65.8994 86.5781 65.1489 87.3286 65.1489 88.2543V93.542C65.1489 94.4677 65.8994 95.2182 66.8251 95.2182H111.681C112.606 95.2182 113.357 94.4677 113.357 93.542V88.2543C113.357 87.3286 112.606 86.5781 111.681 86.5781Z" fill="#3576BA"/>
<path d="M111.681 102.738H66.8251C65.8994 102.738 65.1489 103.488 65.1489 104.414V109.702C65.1489 110.627 65.8994 111.378 66.8251 111.378H111.681C112.606 111.378 113.357 110.627 113.357 109.702V104.414C113.357 103.488 112.606 102.738 111.681 102.738Z" fill="#3576BA"/>
<path d="M97.239 69.5234L92.5198 66.8064V64.5617C93.2031 63.735 93.6981 62.7693 93.9703 61.7318C94.1327 61.7895 94.3037 61.8192 94.476 61.8196C95.0612 61.8196 95.4333 60.0055 95.496 58.7097C96.1773 57.2676 95.2493 56.4232 95.2493 56.4232C95.2493 56.4232 95.6339 56.0387 95.8889 54.4963C96.1439 52.9538 94.9902 53.5976 94.0915 52.1847C93.1928 50.7719 92.5491 49.2336 89.598 49.2336C88.7848 49.2069 87.9824 49.4254 87.2951 49.8608C86.6078 50.2961 86.0673 50.9282 85.744 51.6748C85.0094 51.6774 84.2775 51.7629 83.5621 51.9297C82.6592 52.1847 82.4042 55.14 83.1733 56.2978C83.5176 56.9306 83.7013 57.6382 83.7084 58.3586C83.5035 58.1078 83.2904 58.0409 83.1733 58.6094C82.9183 59.8926 83.9466 61.69 83.9466 61.69L84.4775 61.5396C84.7449 62.6483 85.2609 63.6817 85.9865 64.5617V66.8064L81.2672 69.5234C80.7161 69.8415 80.2584 70.2991 79.94 70.8501C79.6215 71.4011 79.4536 72.0261 79.4531 72.6625V74.2175C82.2599 76.3857 85.7064 77.562 89.2531 77.562C92.7998 77.562 96.2464 76.3857 99.0532 74.2175V72.6625C99.0535 72.026 98.8859 71.4006 98.5674 70.8494C98.2489 70.2983 97.7907 69.8409 97.239 69.5234Z" fill="#263238"/>
<path d="M71.2562 109.23C71.1479 109.228 71.0446 109.185 70.9677 109.108C70.9266 109.072 70.8938 109.026 70.8714 108.976C70.8491 108.926 70.8378 108.871 70.8382 108.816C70.8394 108.74 70.8611 108.667 70.9009 108.603L71.6533 107.399L70.1861 107.445C70.1308 107.448 70.0754 107.44 70.0235 107.42C69.9717 107.401 69.9245 107.371 69.8851 107.332C69.817 107.255 69.7793 107.156 69.7793 107.054C69.7793 106.951 69.817 106.852 69.8851 106.776C69.9236 106.736 69.9705 106.704 70.0226 106.684C70.0746 106.664 70.1304 106.655 70.1861 106.659L71.6324 106.713L70.8883 105.514C70.8478 105.448 70.8261 105.373 70.8256 105.296C70.8252 105.241 70.8366 105.186 70.8589 105.136C70.8812 105.085 70.9141 105.04 70.9552 105.004C71.032 104.927 71.1354 104.884 71.2436 104.882C71.3148 104.883 71.3845 104.904 71.4444 104.942C71.5043 104.98 71.5521 105.035 71.5822 105.1L72.297 106.391L73.0034 105.108C73.0369 105.04 73.0885 104.982 73.1526 104.94C73.2167 104.899 73.2909 104.876 73.3671 104.874C73.4199 104.874 73.4721 104.886 73.5203 104.907C73.5685 104.929 73.6117 104.96 73.6471 104.999C73.7238 105.079 73.7659 105.186 73.7642 105.296C73.7639 105.368 73.7452 105.439 73.7098 105.501L72.9532 106.713L74.4204 106.659C74.4761 106.655 74.5319 106.664 74.5839 106.684C74.6359 106.704 74.6829 106.736 74.7214 106.776C74.7926 106.85 74.8317 106.949 74.8301 107.052C74.8298 107.155 74.7911 107.255 74.7214 107.332C74.682 107.371 74.6348 107.401 74.583 107.42C74.5311 107.44 74.4757 107.448 74.4204 107.445L72.9449 107.399L73.6806 108.59C73.7218 108.657 73.7435 108.733 73.7433 108.812C73.7433 108.922 73.6992 109.029 73.6208 109.107C73.5424 109.186 73.4361 109.23 73.3253 109.23C73.2536 109.229 73.1838 109.207 73.1243 109.167C73.0649 109.127 73.0185 109.07 72.9909 109.004L72.2928 107.75L71.5989 109.004C71.5681 109.069 71.5198 109.125 71.4594 109.165C71.3989 109.205 71.3285 109.227 71.2562 109.23Z" fill="#263238"/>
<path d="M78.0362 109.23C77.928 109.228 77.8246 109.185 77.7478 109.108C77.7067 109.072 77.6739 109.026 77.6515 108.976C77.6292 108.926 77.6178 108.871 77.6182 108.816C77.6195 108.74 77.6412 108.667 77.6809 108.603L78.4333 107.399L76.9703 107.445C76.9145 107.447 76.8587 107.439 76.8063 107.419C76.7539 107.4 76.7059 107.37 76.6652 107.332C76.6097 107.275 76.5727 107.202 76.5591 107.123C76.5454 107.045 76.5557 106.964 76.5887 106.892C76.6216 106.819 76.6756 106.758 76.7437 106.716C76.8117 106.675 76.8907 106.655 76.9703 106.659L78.4124 106.713L77.6684 105.514C77.6279 105.448 77.6062 105.373 77.6057 105.296C77.6053 105.241 77.6166 105.186 77.639 105.136C77.6613 105.086 77.6941 105.04 77.7353 105.004C77.8121 104.927 77.9155 104.884 78.0237 104.882C78.0949 104.883 78.1645 104.904 78.2245 104.942C78.2844 104.98 78.3322 105.035 78.3623 105.1L79.0771 106.391L79.7835 105.108C79.817 105.04 79.8686 104.982 79.9327 104.94C79.9968 104.899 80.0709 104.876 80.1471 104.874C80.2 104.874 80.2524 104.885 80.3007 104.907C80.349 104.928 80.3921 104.96 80.4272 104.999C80.4659 105.038 80.4966 105.085 80.5174 105.136C80.5382 105.187 80.5487 105.241 80.5484 105.296C80.5469 105.368 80.5268 105.439 80.4899 105.501L79.7333 106.713L81.2047 106.667C81.2597 106.664 81.3149 106.672 81.3662 106.692C81.4176 106.713 81.4638 106.744 81.5015 106.784C81.5727 106.858 81.6118 106.957 81.6101 107.06C81.6099 107.164 81.5711 107.264 81.5015 107.34C81.4629 107.379 81.4164 107.409 81.3653 107.429C81.3141 107.448 81.2593 107.456 81.2047 107.453L79.725 107.407L80.4606 108.598C80.5019 108.665 80.5236 108.742 80.5233 108.82C80.5233 108.931 80.4793 109.037 80.4009 109.116C80.3225 109.194 80.2162 109.238 80.1053 109.238C80.0337 109.237 79.9638 109.215 79.9044 109.175C79.845 109.135 79.7986 109.078 79.7709 109.012L79.0729 107.758L78.379 109.012C78.3471 109.076 78.2983 109.13 78.2379 109.169C78.1775 109.207 78.1077 109.228 78.0362 109.23Z" fill="#263238"/>
<path d="M84.8204 109.23C84.7108 109.229 84.6057 109.186 84.5278 109.108C84.4867 109.072 84.4539 109.026 84.4315 108.976C84.4092 108.926 84.3978 108.871 84.3982 108.816C84.3995 108.74 84.4212 108.667 84.4609 108.603L85.2133 107.399L83.7503 107.445C83.6716 107.448 83.5936 107.427 83.5265 107.386C83.4593 107.345 83.406 107.285 83.3732 107.213C83.3405 107.141 83.3299 107.061 83.3427 106.983C83.3555 106.906 83.3912 106.833 83.4452 106.776C83.4847 106.736 83.5324 106.704 83.585 106.684C83.6377 106.664 83.6941 106.655 83.7503 106.659L85.1924 106.713L84.4484 105.514C84.4079 105.448 84.3862 105.373 84.3857 105.296C84.387 105.241 84.3991 105.187 84.4214 105.137C84.4436 105.087 84.4755 105.041 84.5153 105.004C84.5931 104.926 84.6982 104.883 84.8079 104.882C84.8784 104.884 84.9471 104.905 85.0063 104.943C85.0654 104.982 85.1125 105.036 85.1423 105.1L85.8571 106.391L86.5635 105.108C86.597 105.04 86.6486 104.982 86.7127 104.94C86.7768 104.899 86.8509 104.876 86.9271 104.874C86.9801 104.874 87.0324 104.885 87.0807 104.907C87.129 104.928 87.1721 104.96 87.2072 104.999C87.2459 105.038 87.2766 105.085 87.2974 105.136C87.3182 105.187 87.3287 105.241 87.3284 105.296C87.3269 105.368 87.3068 105.439 87.2699 105.501L86.5133 106.713L87.9847 106.659C88.0388 106.653 88.0934 106.66 88.1449 106.677C88.1964 106.695 88.2435 106.723 88.2831 106.76C88.3227 106.797 88.3539 106.843 88.3745 106.893C88.3951 106.943 88.4047 106.997 88.4027 107.052C88.4036 107.155 88.3663 107.255 88.2982 107.332C88.2588 107.371 88.2116 107.401 88.1598 107.42C88.1079 107.44 88.0525 107.448 87.9972 107.445L86.5217 107.399L87.2532 108.59C87.2944 108.657 87.3161 108.733 87.3159 108.812C87.3146 108.866 87.3024 108.921 87.2802 108.971C87.258 109.021 87.2261 109.066 87.1863 109.104C87.1499 109.143 87.106 109.175 87.0571 109.196C87.0082 109.218 86.9555 109.229 86.9021 109.23C86.831 109.228 86.7618 109.206 86.7031 109.166C86.6444 109.126 86.5988 109.07 86.5718 109.004L85.8696 107.75L85.1757 109.004C85.1444 109.072 85.0943 109.129 85.0313 109.169C84.9683 109.209 84.8951 109.23 84.8204 109.23Z" fill="#263238"/>
<path d="M91.6002 109.23C91.4905 109.229 91.3854 109.186 91.3076 109.108C91.2288 109.031 91.1837 108.926 91.1822 108.816C91.1809 108.741 91.2012 108.667 91.2407 108.603L91.9931 107.399L90.5301 107.445C90.4743 107.447 90.4185 107.439 90.3661 107.419C90.3137 107.4 90.2657 107.37 90.225 107.332C90.1568 107.255 90.1191 107.156 90.1191 107.054C90.1191 106.951 90.1568 106.852 90.225 106.776C90.2653 106.737 90.3132 106.706 90.3656 106.686C90.418 106.666 90.474 106.657 90.5301 106.659L91.9764 106.713L91.2365 105.514C91.196 105.448 91.1743 105.373 91.1738 105.296C91.1751 105.241 91.1873 105.187 91.2095 105.137C91.2317 105.087 91.2636 105.041 91.3034 105.004C91.3813 104.926 91.4863 104.883 91.596 104.882C91.6672 104.883 91.7369 104.904 91.7968 104.942C91.8567 104.98 91.9045 105.035 91.9346 105.1L92.6452 106.391L93.3516 105.108C93.3851 105.04 93.4367 104.982 93.5008 104.94C93.5649 104.899 93.6391 104.876 93.7153 104.874C93.7682 104.874 93.8205 104.885 93.8688 104.907C93.9171 104.928 93.9602 104.96 93.9953 104.999C94.0341 105.038 94.0647 105.085 94.0855 105.136C94.1063 105.187 94.1169 105.241 94.1165 105.296C94.1151 105.368 94.0949 105.439 94.058 105.501L93.3014 106.713L94.7728 106.659C94.8269 106.653 94.8815 106.66 94.933 106.677C94.9845 106.695 95.0316 106.723 95.0712 106.76C95.1108 106.797 95.142 106.843 95.1626 106.893C95.1833 106.943 95.1929 106.997 95.1908 107.052C95.1917 107.155 95.1545 107.255 95.0863 107.332C95.0469 107.371 94.9998 107.401 94.9479 107.42C94.896 107.44 94.8406 107.448 94.7853 107.445L93.3098 107.399L94.0413 108.59C94.0825 108.657 94.1042 108.733 94.104 108.812C94.1044 108.867 94.0931 108.921 94.0707 108.972C94.0484 109.022 94.0155 109.067 93.9744 109.104C93.938 109.143 93.8941 109.175 93.8452 109.196C93.7963 109.218 93.7436 109.229 93.6902 109.23C93.6191 109.228 93.5499 109.206 93.4912 109.166C93.4326 109.126 93.3869 109.07 93.36 109.004L92.6577 107.75L91.9638 109.004C91.932 109.073 91.8805 109.131 91.8159 109.171C91.7512 109.211 91.6762 109.232 91.6002 109.23Z" fill="#263238"/>
<path d="M98.38 109.23C98.2703 109.229 98.1652 109.186 98.0874 109.108C98.0226 109.043 97.9814 108.958 97.97 108.866C97.9587 108.775 97.9779 108.682 98.0247 108.603L98.7729 107.399L97.3099 107.445C97.2541 107.447 97.1983 107.439 97.1459 107.419C97.0935 107.4 97.0455 107.37 97.0047 107.332C96.9366 107.255 96.8989 107.156 96.8989 107.054C96.8989 106.951 96.9366 106.852 97.0047 106.776C97.0451 106.737 97.093 106.706 97.1454 106.686C97.1978 106.666 97.2538 106.657 97.3099 106.659L98.7562 106.713L98.0121 105.514C97.9716 105.448 97.9499 105.373 97.9494 105.296C97.951 105.186 97.9961 105.081 98.0748 105.004C98.1527 104.926 98.2578 104.883 98.3674 104.882C98.4386 104.883 98.5083 104.904 98.5682 104.942C98.6281 104.98 98.6759 105.035 98.706 105.1L99.4166 106.391L100.123 105.108C100.157 105.04 100.208 104.982 100.272 104.94C100.336 104.899 100.41 104.876 100.487 104.874C100.54 104.874 100.593 104.885 100.642 104.906C100.691 104.928 100.735 104.96 100.771 104.999C100.848 105.079 100.89 105.186 100.888 105.296C100.886 105.368 100.866 105.439 100.829 105.501L100.073 106.713L101.544 106.659C101.598 106.653 101.653 106.66 101.704 106.677C101.756 106.695 101.803 106.723 101.843 106.76C101.882 106.797 101.913 106.843 101.934 106.893C101.955 106.943 101.964 106.997 101.962 107.052C101.963 107.155 101.926 107.255 101.858 107.332C101.818 107.371 101.771 107.401 101.719 107.42C101.667 107.44 101.612 107.448 101.557 107.445L100.081 107.399L100.813 108.59C100.854 108.657 100.876 108.733 100.875 108.812C100.876 108.867 100.864 108.921 100.842 108.972C100.82 109.022 100.787 109.067 100.746 109.104C100.709 109.143 100.666 109.175 100.617 109.196C100.568 109.218 100.515 109.229 100.462 109.23C100.391 109.228 100.321 109.206 100.263 109.166C100.204 109.126 100.158 109.07 100.131 109.004L99.4291 107.75L98.7353 109.004C98.704 109.072 98.6538 109.129 98.5908 109.169C98.5278 109.209 98.4546 109.23 98.38 109.23Z" fill="#263238"/>
<path d="M105.16 109.23C105.052 109.228 104.948 109.185 104.872 109.108C104.83 109.072 104.798 109.026 104.775 108.976C104.753 108.926 104.742 108.871 104.742 108.816C104.743 108.74 104.765 108.667 104.805 108.603L105.553 107.399L104.09 107.445C104.036 107.449 103.982 107.442 103.931 107.424C103.88 107.406 103.834 107.377 103.794 107.34C103.755 107.303 103.724 107.259 103.703 107.209C103.682 107.159 103.671 107.106 103.672 107.052C103.672 107.001 103.681 106.95 103.701 106.903C103.72 106.855 103.749 106.812 103.785 106.776C103.823 106.736 103.87 106.704 103.922 106.684C103.974 106.664 104.03 106.655 104.086 106.659L105.532 106.713L104.788 105.514C104.747 105.448 104.726 105.373 104.725 105.296C104.727 105.186 104.772 105.081 104.851 105.004C104.929 104.926 105.034 104.883 105.143 104.882C105.214 104.883 105.284 104.904 105.344 104.942C105.404 104.98 105.452 105.035 105.482 105.1L106.192 106.391L106.903 105.108C106.936 105.04 106.987 104.983 107.05 104.941C107.114 104.9 107.187 104.877 107.263 104.874C107.316 104.874 107.369 104.885 107.418 104.906C107.467 104.928 107.511 104.96 107.547 104.999C107.623 105.079 107.666 105.186 107.664 105.296C107.664 105.368 107.645 105.439 107.609 105.501L106.853 106.713L108.32 106.659C108.376 106.655 108.432 106.664 108.484 106.684C108.536 106.704 108.583 106.736 108.621 106.776C108.692 106.85 108.731 106.949 108.73 107.052C108.729 107.155 108.691 107.255 108.621 107.332C108.582 107.371 108.534 107.401 108.483 107.42C108.431 107.44 108.375 107.448 108.32 107.445L106.845 107.399L107.576 108.59C107.617 108.657 107.639 108.733 107.639 108.812C107.637 108.922 107.592 109.027 107.513 109.104C107.437 109.182 107.334 109.227 107.225 109.23C107.154 109.228 107.085 109.206 107.026 109.166C106.967 109.126 106.922 109.07 106.895 109.004L106.192 107.75L105.499 109.004C105.468 109.069 105.421 109.125 105.361 109.165C105.301 109.204 105.232 109.227 105.16 109.23Z" fill="#263238"/>
<g style="mix-blend-mode:multiply">
<path d="M126.248 24.5469H52.2539V29.1825H126.248V24.5469Z" fill="#3576BA"/>
</g>
<path d="M97.2975 16.0072H81.2045C80.9141 16.0072 80.6355 15.8918 80.4301 15.6864C80.2248 15.4811 80.1094 15.2025 80.1094 14.9121C80.1094 14.6216 80.2248 14.343 80.4301 14.1377C80.6355 13.9323 80.9141 13.8169 81.2045 13.8169H97.2975C97.588 13.8169 97.8665 13.9323 98.0719 14.1377C98.2773 14.343 98.3927 14.6216 98.3927 14.9121C98.3927 15.2025 98.2773 15.4811 98.0719 15.6864C97.8665 15.8918 97.588 16.0072 97.2975 16.0072Z" fill="#3576BA" stroke="#263238" stroke-width="1.33739" stroke-linecap="round" stroke-linejoin="round"/>
<path d="M93.6398 150.866C93.6406 149.998 93.3838 149.149 92.9019 148.426C92.4199 147.704 91.7345 147.141 90.9323 146.808C90.1302 146.475 89.2474 146.388 88.3956 146.557C87.5438 146.726 86.7614 147.145 86.1473 147.759C85.5333 148.373 85.1152 149.155 84.9459 150.007C84.7767 150.859 84.864 151.742 85.1967 152.544C85.5294 153.346 86.0926 154.031 86.815 154.513C87.5374 154.995 88.3866 155.252 89.255 155.251C90.4176 155.25 91.5322 154.788 92.3543 153.966C93.1764 153.144 93.6387 152.029 93.6398 150.866Z" fill="#3576BA"/>
<path d="M91.4788 148.643H87.0312V153.09H91.4788V148.643Z" fill="#3576BA" stroke="#263238" stroke-width="1.33739" stroke-linecap="round" stroke-linejoin="round"/>
<path d="M142.233 100.397C142.233 100.397 136.406 85.5916 141.593 83.8319C146.994 81.9968 146.756 91.7739 146.547 96.5391C146.108 106.722 144.983 108.615 144.143 106.128L142.233 100.397ZM140.481 111.947C142.082 114.037 142.534 111.871 139.645 102.094C138.291 97.4963 135.348 88.1958 130.834 91.6861C126.499 95.0301 136.816 107.152 136.816 107.152L140.481 111.947ZM137.388 120.432C138.914 121.786 138.943 120.077 135.319 113.017C133.618 109.71 130.019 103.018 127.072 106.329C124.242 109.522 133.885 117.284 133.885 117.284L137.388 120.432ZM134.044 130.522C135.57 131.881 135.599 130.167 131.975 123.111C130.274 119.805 126.675 113.109 123.728 116.423C120.915 119.625 130.529 127.387 130.529 127.387L134.044 130.522ZM143.7 109.982C141.259 110.935 143.198 111.972 153.394 111.942C158.175 111.942 167.94 111.725 165.858 106.412C163.864 101.308 149.343 107.808 149.343 107.808L143.7 109.982ZM140.92 116.77C138.337 117.218 140.034 118.622 150.033 120.62C154.719 121.561 164.328 123.295 163.346 117.694C162.406 112.293 146.881 115.78 146.881 115.78L140.92 116.77ZM137.81 125.059C135.612 125.377 137.016 126.602 145.422 128.524C149.364 129.427 157.452 131.12 156.75 126.342C156.081 121.744 142.872 124.344 142.872 124.344L137.81 125.059ZM135.449 132.738C133.296 133.285 134.822 134.356 143.391 135.375C147.404 135.852 155.626 136.68 154.426 132.002C153.268 127.513 140.41 131.488 140.41 131.488L135.449 132.738ZM148.047 101.651C146.793 104.46 149.397 104.034 158.251 96.3092C162.397 92.6851 170.715 85.1026 164.128 81.328C157.803 77.6998 151.003 95.2056 151.003 95.2056L148.047 101.651ZM135.775 142.741C134.45 143.514 135.75 143.815 141.827 142.603C144.678 142.038 150.476 140.784 148.515 138.31C146.618 135.927 138.843 140.943 138.843 140.943L135.775 142.741Z" fill="#3576BA"/>
<path opacity="0.3" d="M142.233 100.397C142.233 100.397 136.406 85.5916 141.593 83.8319C146.994 81.9968 146.756 91.7739 146.547 96.5391C146.108 106.722 144.983 108.615 144.143 106.128L142.233 100.397ZM140.481 111.947C142.082 114.037 142.534 111.871 139.645 102.094C138.291 97.4963 135.348 88.1958 130.834 91.6861C126.499 95.0301 136.816 107.152 136.816 107.152L140.481 111.947ZM137.388 120.432C138.914 121.786 138.943 120.077 135.319 113.017C133.618 109.71 130.019 103.018 127.072 106.329C124.242 109.522 133.885 117.284 133.885 117.284L137.388 120.432ZM134.044 130.522C135.57 131.881 135.599 130.167 131.975 123.111C130.274 119.805 126.675 113.109 123.728 116.423C120.915 119.625 130.529 127.387 130.529 127.387L134.044 130.522ZM143.7 109.982C141.259 110.935 143.198 111.972 153.394 111.942C158.175 111.942 167.94 111.725 165.858 106.412C163.864 101.308 149.343 107.808 149.343 107.808L143.7 109.982ZM140.92 116.77C138.337 117.218 140.034 118.622 150.033 120.62C154.719 121.561 164.328 123.295 163.346 117.694C162.406 112.293 146.881 115.78 146.881 115.78L140.92 116.77ZM137.81 125.059C135.612 125.377 137.016 126.602 145.422 128.524C149.364 129.427 157.452 131.12 156.75 126.342C156.081 121.744 142.872 124.344 142.872 124.344L137.81 125.059ZM135.449 132.738C133.296 133.285 134.822 134.356 143.391 135.375C147.404 135.852 155.626 136.68 154.426 132.002C153.268 127.513 140.41 131.488 140.41 131.488L135.449 132.738ZM148.047 101.651C146.793 104.46 149.397 104.034 158.251 96.3092C162.397 92.6851 170.715 85.1026 164.128 81.328C157.803 77.6998 151.003 95.2056 151.003 95.2056L148.047 101.651ZM135.775 142.741C134.45 143.514 135.75 143.815 141.827 142.603C144.678 142.038 150.476 140.784 148.515 138.31C146.618 135.927 138.843 140.943 138.843 140.943L135.775 142.741Z" fill="white"/>
<path d="M144.804 107.29L143.788 90.3903L144.804 107.29ZM141.589 112.866L135.169 98.3323L141.589 112.866ZM158.159 108.64L142.772 110.847L158.159 108.64ZM138.262 120.699L129.931 110.011L138.262 120.699ZM139.725 117.422L151.203 117.999L139.725 117.422ZM137.008 125.619L145.786 126.489L137.008 125.619ZM134.889 130.828L130.529 124.269L134.889 130.828ZM134.387 133.143L144.707 133.239L134.387 133.143ZM132.297 152.505C132.366 152.5 132.43 152.467 132.476 152.415C132.521 152.362 132.544 152.294 132.539 152.225C131.883 142.369 135.695 126.225 141.811 112.975C145.719 104.506 161.039 87.8614 161.202 87.6942C161.251 87.6448 161.279 87.5779 161.279 87.5082C161.279 87.4384 161.251 87.3716 161.202 87.3222C161.178 87.2979 161.149 87.2787 161.117 87.2655C161.086 87.2524 161.052 87.2456 161.018 87.2456C160.984 87.2456 160.95 87.2524 160.918 87.2655C160.887 87.2787 160.858 87.2979 160.834 87.3222C160.679 87.4894 145.297 104.197 141.355 112.741C135.127 126.313 131.365 142.164 132.034 152.258C132.039 152.325 132.069 152.387 132.118 152.433C132.166 152.479 132.23 152.504 132.297 152.505ZM144.799 107.549C144.869 107.545 144.933 107.514 144.979 107.462C145.026 107.41 145.049 107.343 145.046 107.273L144.047 90.3652C144.045 90.3308 144.037 90.297 144.022 90.2659C144.007 90.2348 143.987 90.207 143.961 90.184C143.935 90.161 143.905 90.1434 143.873 90.1322C143.84 90.121 143.806 90.1163 143.771 90.1186C143.702 90.1229 143.637 90.1543 143.591 90.2059C143.545 90.2576 143.521 90.3253 143.525 90.3945L144.54 107.294C144.543 107.361 144.572 107.423 144.62 107.469C144.669 107.515 144.733 107.541 144.799 107.541V107.549ZM141.681 113.104C141.744 113.076 141.793 113.024 141.818 112.96C141.843 112.896 141.842 112.825 141.815 112.762L135.39 98.2278C135.363 98.1646 135.311 98.115 135.247 98.0899C135.182 98.0648 135.111 98.0663 135.047 98.094C134.984 98.1218 134.935 98.1734 134.91 98.2377C134.885 98.302 134.886 98.3736 134.914 98.4368L141.334 112.971C141.354 113.017 141.388 113.057 141.43 113.085C141.472 113.113 141.522 113.129 141.572 113.129C141.616 113.132 141.659 113.123 141.698 113.104H141.681ZM142.793 111.098L158.171 108.899C158.208 108.899 158.245 108.89 158.279 108.874C158.312 108.858 158.342 108.835 158.366 108.807C158.39 108.779 158.408 108.746 158.418 108.71C158.429 108.675 158.432 108.637 158.427 108.6C158.422 108.563 158.409 108.528 158.389 108.497C158.37 108.465 158.343 108.438 158.313 108.417C158.282 108.397 158.247 108.383 158.21 108.377C158.174 108.37 158.136 108.372 158.1 108.381L142.722 110.58C142.653 110.584 142.589 110.616 142.544 110.667C142.498 110.719 142.475 110.787 142.48 110.856C142.484 110.924 142.516 110.988 142.567 111.034C142.619 111.079 142.687 111.102 142.755 111.098H142.793ZM138.408 120.908C138.463 120.866 138.498 120.803 138.507 120.734C138.515 120.665 138.497 120.596 138.454 120.541L130.119 109.831C130.077 109.776 130.014 109.74 129.944 109.731C129.875 109.722 129.805 109.741 129.749 109.783C129.694 109.826 129.658 109.889 129.649 109.958C129.64 110.028 129.659 110.098 129.701 110.153L138.053 120.879C138.077 120.91 138.108 120.936 138.144 120.953C138.179 120.971 138.218 120.98 138.258 120.98C138.32 120.976 138.379 120.951 138.425 120.908H138.408ZM151.433 118.012C151.435 117.943 151.41 117.875 151.363 117.824C151.316 117.774 151.251 117.743 151.182 117.74L139.725 117.159C139.661 117.163 139.6 117.191 139.555 117.237C139.51 117.284 139.483 117.345 139.48 117.409C139.477 117.474 139.498 117.537 139.538 117.587C139.579 117.637 139.636 117.671 139.7 117.682L151.178 118.263C151.247 118.265 151.315 118.24 151.365 118.193C151.416 118.146 151.447 118.081 151.45 118.012H151.433ZM146.028 126.514C146.032 126.479 146.03 126.445 146.02 126.411C146.01 126.378 145.994 126.347 145.972 126.32C145.95 126.293 145.923 126.271 145.893 126.255C145.862 126.239 145.829 126.229 145.794 126.225L137.016 125.36C136.982 125.357 136.948 125.36 136.915 125.37C136.882 125.38 136.852 125.396 136.825 125.418C136.799 125.44 136.777 125.467 136.761 125.497C136.745 125.527 136.735 125.56 136.732 125.594C136.726 125.663 136.747 125.731 136.791 125.784C136.835 125.837 136.898 125.871 136.966 125.878L145.744 126.748H145.769C145.837 126.753 145.903 126.731 145.955 126.687C146.006 126.643 146.039 126.581 146.045 126.514H146.028ZM135.014 131.045C135.072 131.007 135.113 130.947 135.127 130.879C135.141 130.811 135.127 130.74 135.089 130.681L130.75 124.123C130.711 124.066 130.651 124.027 130.583 124.014C130.515 124.001 130.445 124.014 130.387 124.052C130.329 124.09 130.288 124.15 130.274 124.218C130.26 124.286 130.274 124.357 130.312 124.416L134.65 130.974C134.675 131.01 134.708 131.039 134.747 131.06C134.785 131.08 134.828 131.091 134.872 131.091C134.929 131.094 134.985 131.078 135.031 131.045H135.014ZM144.971 133.239C144.97 133.171 144.942 133.105 144.894 133.056C144.846 133.007 144.78 132.978 144.712 132.976L134.391 132.88C134.322 132.88 134.257 132.907 134.208 132.956C134.159 133.005 134.132 133.07 134.132 133.139C134.131 133.174 134.137 133.208 134.149 133.24C134.162 133.272 134.181 133.302 134.205 133.326C134.229 133.351 134.258 133.37 134.29 133.384C134.322 133.397 134.357 133.403 134.391 133.403L144.712 133.499C144.747 133.5 144.782 133.495 144.815 133.483C144.848 133.47 144.879 133.452 144.905 133.428C144.93 133.403 144.951 133.374 144.965 133.342C144.979 133.31 144.987 133.275 144.988 133.239H144.971ZM131.122 148.672C131.143 148.626 132.903 143.777 138.195 142.619C138.263 142.604 138.323 142.563 138.36 142.504C138.398 142.445 138.411 142.374 138.396 142.306C138.379 142.239 138.337 142.181 138.278 142.145C138.22 142.108 138.15 142.096 138.082 142.109C132.502 143.33 130.65 148.45 130.629 148.501C130.608 148.567 130.613 148.638 130.643 148.701C130.674 148.763 130.727 148.811 130.792 148.835H130.876C130.931 148.84 130.987 148.827 131.035 148.797C131.082 148.768 131.119 148.724 131.139 148.672H131.122ZM132.297 152.505C132.366 152.5 132.43 152.467 132.476 152.415C132.521 152.362 132.544 152.294 132.539 152.225C131.883 142.369 135.695 126.225 141.811 112.975C145.719 104.506 161.039 87.8614 161.202 87.6942C161.251 87.6448 161.279 87.5779 161.279 87.5082C161.279 87.4384 161.251 87.3716 161.202 87.3222C161.178 87.2979 161.149 87.2787 161.117 87.2655C161.086 87.2524 161.052 87.2456 161.018 87.2456C160.984 87.2456 160.95 87.2524 160.918 87.2655C160.887 87.2787 160.858 87.2979 160.834 87.3222C160.679 87.4894 145.297 104.197 141.355 112.741C135.127 126.313 131.365 142.164 132.034 152.258C132.039 152.325 132.069 152.387 132.118 152.433C132.166 152.479 132.23 152.504 132.297 152.505ZM144.799 107.549C144.869 107.545 144.933 107.514 144.979 107.462C145.026 107.41 145.049 107.343 145.046 107.273L144.047 90.3652C144.045 90.3308 144.037 90.297 144.022 90.2659C144.007 90.2348 143.987 90.207 143.961 90.184C143.935 90.161 143.905 90.1434 143.873 90.1322C143.84 90.121 143.806 90.1163 143.771 90.1186C143.702 90.1229 143.637 90.1543 143.591 90.2059C143.545 90.2576 143.521 90.3253 143.525 90.3945L144.54 107.294C144.543 107.361 144.572 107.423 144.62 107.469C144.669 107.515 144.733 107.541 144.799 107.541V107.549ZM141.681 113.104C141.744 113.076 141.793 113.024 141.818 112.96C141.843 112.896 141.842 112.825 141.815 112.762L135.39 98.2278C135.363 98.1646 135.311 98.115 135.247 98.0899C135.182 98.0648 135.111 98.0663 135.047 98.094C134.984 98.1218 134.935 98.1734 134.91 98.2377C134.885 98.302 134.886 98.3736 134.914 98.4368L141.334 112.971C141.354 113.017 141.388 113.057 141.43 113.085C141.472 113.113 141.522 113.129 141.572 113.129C141.616 113.132 141.659 113.123 141.698 113.104H141.681ZM142.793 111.098L158.171 108.899C158.208 108.899 158.245 108.89 158.279 108.874C158.312 108.858 158.342 108.835 158.366 108.807C158.39 108.779 158.408 108.746 158.418 108.71C158.429 108.675 158.432 108.637 158.427 108.6C158.422 108.563 158.409 108.528 158.389 108.497C158.37 108.465 158.343 108.438 158.313 108.417C158.282 108.397 158.247 108.383 158.21 108.377C158.174 108.37 158.136 108.372 158.1 108.381L142.722 110.58C142.653 110.584 142.589 110.616 142.544 110.667C142.498 110.719 142.475 110.787 142.48 110.856C142.484 110.924 142.516 110.988 142.567 111.034C142.619 111.079 142.687 111.102 142.755 111.098H142.793ZM138.408 120.908C138.463 120.866 138.498 120.803 138.507 120.734C138.515 120.665 138.497 120.596 138.454 120.541L130.119 109.831C130.098 109.804 130.072 109.781 130.042 109.764C130.012 109.746 129.979 109.735 129.944 109.731C129.91 109.726 129.875 109.729 129.842 109.738C129.808 109.747 129.777 109.762 129.749 109.783C129.722 109.805 129.699 109.831 129.682 109.861C129.664 109.891 129.653 109.924 129.649 109.958C129.644 109.993 129.647 110.028 129.656 110.061C129.665 110.095 129.68 110.126 129.701 110.153L138.053 120.879C138.077 120.91 138.108 120.936 138.144 120.953C138.179 120.971 138.218 120.98 138.258 120.98C138.32 120.976 138.379 120.951 138.425 120.908H138.408ZM151.433 118.012C151.435 117.943 151.41 117.875 151.363 117.824C151.316 117.774 151.251 117.743 151.182 117.74L139.725 117.159C139.661 117.163 139.6 117.191 139.555 117.237C139.51 117.284 139.483 117.345 139.48 117.409C139.477 117.474 139.498 117.537 139.538 117.587C139.579 117.637 139.636 117.671 139.7 117.682L151.178 118.263C151.247 118.265 151.315 118.24 151.365 118.193C151.416 118.146 151.447 118.081 151.45 118.012H151.433ZM146.028 126.514C146.032 126.479 146.03 126.445 146.02 126.411C146.01 126.378 145.994 126.347 145.972 126.32C145.95 126.293 145.923 126.271 145.893 126.255C145.862 126.239 145.829 126.229 145.794 126.225L137.016 125.36C136.982 125.357 136.948 125.36 136.915 125.37C136.882 125.38 136.852 125.396 136.825 125.418C136.799 125.44 136.777 125.467 136.761 125.497C136.745 125.527 136.735 125.56 136.732 125.594C136.726 125.663 136.747 125.731 136.791 125.784C136.835 125.837 136.898 125.871 136.966 125.878L145.744 126.748H145.769C145.837 126.753 145.903 126.731 145.955 126.687C146.006 126.643 146.039 126.581 146.045 126.514H146.028ZM135.014 131.045C135.072 131.007 135.113 130.947 135.127 130.879C135.141 130.811 135.127 130.74 135.089 130.681L130.75 124.123C130.711 124.066 130.651 124.027 130.583 124.014C130.515 124.001 130.445 124.014 130.387 124.052C130.329 124.09 130.288 124.15 130.274 124.218C130.26 124.286 130.274 124.357 130.312 124.416L134.65 130.974C134.675 131.01 134.708 131.039 134.747 131.06C134.785 131.08 134.828 131.091 134.872 131.091C134.929 131.094 134.985 131.078 135.031 131.045H135.014ZM144.971 133.239C144.97 133.171 144.942 133.105 144.894 133.056C144.846 133.007 144.78 132.978 144.712 132.976L134.391 132.88C134.322 132.88 134.257 132.907 134.208 132.956C134.159 133.005 134.132 133.07 134.132 133.139C134.131 133.174 134.137 133.208 134.149 133.24C134.162 133.272 134.181 133.302 134.205 133.326C134.229 133.351 134.258 133.37 134.29 133.384C134.322 133.397 134.357 133.403 134.391 133.403L144.712 133.499C144.747 133.5 144.782 133.495 144.815 133.483C144.848 133.47 144.879 133.452 144.905 133.428C144.93 133.403 144.951 133.374 144.965 133.342C144.979 133.31 144.987 133.275 144.988 133.239H144.971ZM131.122 148.672C131.143 148.626 132.903 143.777 138.195 142.619C138.263 142.604 138.323 142.563 138.36 142.504C138.398 142.445 138.411 142.374 138.396 142.306C138.379 142.239 138.337 142.181 138.278 142.145C138.22 142.108 138.15 142.096 138.082 142.109C132.502 143.33 130.65 148.45 130.629 148.501C130.608 148.567 130.613 148.638 130.643 148.701C130.674 148.763 130.727 148.811 130.792 148.835H130.876C130.931 148.84 130.987 148.827 131.035 148.797C131.082 148.768 131.119 148.724 131.139 148.672H131.122Z" fill="#3576BA"/>
<path opacity="0.2" d="M144.804 107.29L143.788 90.3903L144.804 107.29ZM141.589 112.866L135.169 98.3323L141.589 112.866ZM158.159 108.64L142.772 110.847L158.159 108.64ZM138.262 120.699L129.931 110.011L138.262 120.699ZM139.725 117.422L151.203 117.999L139.725 117.422ZM137.008 125.619L145.786 126.489L137.008 125.619ZM134.889 130.828L130.529 124.269L134.889 130.828ZM134.387 133.143L144.707 133.239L134.387 133.143ZM132.297 152.505C132.366 152.5 132.43 152.467 132.476 152.415C132.521 152.362 132.544 152.294 132.539 152.225C131.883 142.369 135.695 126.225 141.811 112.975C145.719 104.506 161.039 87.8614 161.202 87.6942C161.251 87.6448 161.279 87.5779 161.279 87.5082C161.279 87.4384 161.251 87.3716 161.202 87.3222C161.178 87.2979 161.149 87.2787 161.117 87.2655C161.086 87.2524 161.052 87.2456 161.018 87.2456C160.984 87.2456 160.95 87.2524 160.918 87.2655C160.887 87.2787 160.858 87.2979 160.834 87.3222C160.679 87.4894 145.297 104.197 141.355 112.741C135.127 126.313 131.365 142.164 132.034 152.258C132.039 152.325 132.069 152.387 132.118 152.433C132.166 152.479 132.23 152.504 132.297 152.505ZM144.799 107.549C144.869 107.545 144.933 107.514 144.979 107.462C145.026 107.41 145.049 107.343 145.046 107.273L144.047 90.3652C144.045 90.3308 144.037 90.297 144.022 90.2659C144.007 90.2348 143.987 90.207 143.961 90.184C143.935 90.161 143.905 90.1434 143.873 90.1322C143.84 90.121 143.806 90.1163 143.771 90.1186C143.702 90.1229 143.637 90.1543 143.591 90.2059C143.545 90.2576 143.521 90.3253 143.525 90.3945L144.54 107.294C144.543 107.361 144.572 107.423 144.62 107.469C144.669 107.515 144.733 107.541 144.799 107.541V107.549ZM141.681 113.104C141.744 113.076 141.793 113.024 141.818 112.96C141.843 112.896 141.842 112.825 141.815 112.762L135.39 98.2278C135.363 98.1646 135.311 98.115 135.247 98.0899C135.182 98.0648 135.111 98.0663 135.047 98.094C134.984 98.1218 134.935 98.1734 134.91 98.2377C134.885 98.302 134.886 98.3736 134.914 98.4368L141.334 112.971C141.354 113.017 141.388 113.057 141.43 113.085C141.472 113.113 141.522 113.129 141.572 113.129C141.616 113.132 141.659 113.123 141.698 113.104H141.681ZM142.793 111.098L158.171 108.899C158.208 108.899 158.245 108.89 158.279 108.874C158.312 108.858 158.342 108.835 158.366 108.807C158.39 108.779 158.408 108.746 158.418 108.71C158.429 108.675 158.432 108.637 158.427 108.6C158.422 108.563 158.409 108.528 158.389 108.497C158.37 108.465 158.343 108.438 158.313 108.417C158.282 108.397 158.247 108.383 158.21 108.377C158.174 108.37 158.136 108.372 158.1 108.381L142.722 110.58C142.653 110.584 142.589 110.616 142.544 110.667C142.498 110.719 142.475 110.787 142.48 110.856C142.484 110.924 142.516 110.988 142.567 111.034C142.619 111.079 142.687 111.102 142.755 111.098H142.793ZM138.408 120.908C138.463 120.866 138.498 120.803 138.507 120.734C138.515 120.665 138.497 120.596 138.454 120.541L130.119 109.831C130.077 109.776 130.014 109.74 129.944 109.731C129.875 109.722 129.805 109.741 129.749 109.783C129.694 109.826 129.658 109.889 129.649 109.958C129.64 110.028 129.659 110.098 129.701 110.153L138.053 120.879C138.077 120.91 138.108 120.936 138.144 120.953C138.179 120.971 138.218 120.98 138.258 120.98C138.32 120.976 138.379 120.951 138.425 120.908H138.408ZM151.433 118.012C151.435 117.943 151.41 117.875 151.363 117.824C151.316 117.774 151.251 117.743 151.182 117.74L139.725 117.159C139.661 117.163 139.6 117.191 139.555 117.237C139.51 117.284 139.483 117.345 139.48 117.409C139.477 117.474 139.498 117.537 139.538 117.587C139.579 117.637 139.636 117.671 139.7 117.682L151.178 118.263C151.247 118.265 151.315 118.24 151.365 118.193C151.416 118.146 151.447 118.081 151.45 118.012H151.433ZM146.028 126.514C146.032 126.479 146.03 126.445 146.02 126.411C146.01 126.378 145.994 126.347 145.972 126.32C145.95 126.293 145.923 126.271 145.893 126.255C145.862 126.239 145.829 126.229 145.794 126.225L137.016 125.36C136.982 125.357 136.948 125.36 136.915 125.37C136.882 125.38 136.852 125.396 136.825 125.418C136.799 125.44 136.777 125.467 136.761 125.497C136.745 125.527 136.735 125.56 136.732 125.594C136.726 125.663 136.747 125.731 136.791 125.784C136.835 125.837 136.898 125.871 136.966 125.878L145.744 126.748H145.769C145.837 126.753 145.903 126.731 145.955 126.687C146.006 126.643 146.039 126.581 146.045 126.514H146.028ZM135.014 131.045C135.072 131.007 135.113 130.947 135.127 130.879C135.141 130.811 135.127 130.74 135.089 130.681L130.75 124.123C130.711 124.066 130.651 124.027 130.583 124.014C130.515 124.001 130.445 124.014 130.387 124.052C130.329 124.09 130.288 124.15 130.274 124.218C130.26 124.286 130.274 124.357 130.312 124.416L134.65 130.974C134.675 131.01 134.708 131.039 134.747 131.06C134.785 131.08 134.828 131.091 134.872 131.091C134.929 131.094 134.985 131.078 135.031 131.045H135.014ZM144.971 133.239C144.97 133.171 144.942 133.105 144.894 133.056C144.846 133.007 144.78 132.978 144.712 132.976L134.391 132.88C134.322 132.88 134.257 132.907 134.208 132.956C134.159 133.005 134.132 133.07 134.132 133.139C134.131 133.174 134.137 133.208 134.149 133.24C134.162 133.272 134.181 133.302 134.205 133.326C134.229 133.351 134.258 133.37 134.29 133.384C134.322 133.397 134.357 133.403 134.391 133.403L144.712 133.499C144.747 133.5 144.782 133.495 144.815 133.483C144.848 133.47 144.879 133.452 144.905 133.428C144.93 133.403 144.951 133.374 144.965 133.342C144.979 133.31 144.987 133.275 144.988 133.239H144.971ZM131.122 148.672C131.143 148.626 132.903 143.777 138.195 142.619C138.263 142.604 138.323 142.563 138.36 142.504C138.398 142.445 138.411 142.374 138.396 142.306C138.379 142.239 138.337 142.181 138.278 142.145C138.22 142.108 138.15 142.096 138.082 142.109C132.502 143.33 130.65 148.45 130.629 148.501C130.608 148.567 130.613 148.638 130.643 148.701C130.674 148.763 130.727 148.811 130.792 148.835H130.876C130.931 148.84 130.987 148.827 131.035 148.797C131.082 148.768 131.119 148.724 131.139 148.672H131.122ZM132.297 152.505C132.366 152.5 132.43 152.467 132.476 152.415C132.521 152.362 132.544 152.294 132.539 152.225C131.883 142.369 135.695 126.225 141.811 112.975C145.719 104.506 161.039 87.8614 161.202 87.6942C161.251 87.6448 161.279 87.5779 161.279 87.5082C161.279 87.4384 161.251 87.3716 161.202 87.3222C161.178 87.2979 161.149 87.2787 161.117 87.2655C161.086 87.2524 161.052 87.2456 161.018 87.2456C160.984 87.2456 160.95 87.2524 160.918 87.2655C160.887 87.2787 160.858 87.2979 160.834 87.3222C160.679 87.4894 145.297 104.197 141.355 112.741C135.127 126.313 131.365 142.164 132.034 152.258C132.039 152.325 132.069 152.387 132.118 152.433C132.166 152.479 132.23 152.504 132.297 152.505ZM144.799 107.549C144.869 107.545 144.933 107.514 144.979 107.462C145.026 107.41 145.049 107.343 145.046 107.273L144.047 90.3652C144.045 90.3308 144.037 90.297 144.022 90.2659C144.007 90.2348 143.987 90.207 143.961 90.184C143.935 90.161 143.905 90.1434 143.873 90.1322C143.84 90.121 143.806 90.1163 143.771 90.1186C143.702 90.1229 143.637 90.1543 143.591 90.2059C143.545 90.2576 143.521 90.3253 143.525 90.3945L144.54 107.294C144.543 107.361 144.572 107.423 144.62 107.469C144.669 107.515 144.733 107.541 144.799 107.541V107.549ZM141.681 113.104C141.744 113.076 141.793 113.024 141.818 112.96C141.843 112.896 141.842 112.825 141.815 112.762L135.39 98.2278C135.363 98.1646 135.311 98.115 135.247 98.0899C135.182 98.0648 135.111 98.0663 135.047 98.094C134.984 98.1218 134.935 98.1734 134.91 98.2377C134.885 98.302 134.886 98.3736 134.914 98.4368L141.334 112.971C141.354 113.017 141.388 113.057 141.43 113.085C141.472 113.113 141.522 113.129 141.572 113.129C141.616 113.132 141.659 113.123 141.698 113.104H141.681ZM142.793 111.098L158.171 108.899C158.208 108.899 158.245 108.89 158.279 108.874C158.312 108.858 158.342 108.835 158.366 108.807C158.39 108.779 158.408 108.746 158.418 108.71C158.429 108.675 158.432 108.637 158.427 108.6C158.422 108.563 158.409 108.528 158.389 108.497C158.37 108.465 158.343 108.438 158.313 108.417C158.282 108.397 158.247 108.383 158.21 108.377C158.174 108.37 158.136 108.372 158.1 108.381L142.722 110.58C142.653 110.584 142.589 110.616 142.544 110.667C142.498 110.719 142.475 110.787 142.48 110.856C142.484 110.924 142.516 110.988 142.567 111.034C142.619 111.079 142.687 111.102 142.755 111.098H142.793ZM138.408 120.908C138.463 120.866 138.498 120.803 138.507 120.734C138.515 120.665 138.497 120.596 138.454 120.541L130.119 109.831C130.098 109.804 130.072 109.781 130.042 109.764C130.012 109.746 129.979 109.735 129.944 109.731C129.91 109.726 129.875 109.729 129.842 109.738C129.808 109.747 129.777 109.762 129.749 109.783C129.722 109.805 129.699 109.831 129.682 109.861C129.664 109.891 129.653 109.924 129.649 109.958C129.644 109.993 129.647 110.028 129.656 110.061C129.665 110.095 129.68 110.126 129.701 110.153L138.053 120.879C138.077 120.91 138.108 120.936 138.144 120.953C138.179 120.971 138.218 120.98 138.258 120.98C138.32 120.976 138.379 120.951 138.425 120.908H138.408ZM151.433 118.012C151.435 117.943 151.41 117.875 151.363 117.824C151.316 117.774 151.251 117.743 151.182 117.74L139.725 117.159C139.661 117.163 139.6 117.191 139.555 117.237C139.51 117.284 139.483 117.345 139.48 117.409C139.477 117.474 139.498 117.537 139.538 117.587C139.579 117.637 139.636 117.671 139.7 117.682L151.178 118.263C151.247 118.265 151.315 118.24 151.365 118.193C151.416 118.146 151.447 118.081 151.45 118.012H151.433ZM146.028 126.514C146.032 126.479 146.03 126.445 146.02 126.411C146.01 126.378 145.994 126.347 145.972 126.32C145.95 126.293 145.923 126.271 145.893 126.255C145.862 126.239 145.829 126.229 145.794 126.225L137.016 125.36C136.982 125.357 136.948 125.36 136.915 125.37C136.882 125.38 136.852 125.396 136.825 125.418C136.799 125.44 136.777 125.467 136.761 125.497C136.745 125.527 136.735 125.56 136.732 125.594C136.726 125.663 136.747 125.731 136.791 125.784C136.835 125.837 136.898 125.871 136.966 125.878L145.744 126.748H145.769C145.837 126.753 145.903 126.731 145.955 126.687C146.006 126.643 146.039 126.581 146.045 126.514H146.028ZM135.014 131.045C135.072 131.007 135.113 130.947 135.127 130.879C135.141 130.811 135.127 130.74 135.089 130.681L130.75 124.123C130.711 124.066 130.651 124.027 130.583 124.014C130.515 124.001 130.445 124.014 130.387 124.052C130.329 124.09 130.288 124.15 130.274 124.218C130.26 124.286 130.274 124.357 130.312 124.416L134.65 130.974C134.675 131.01 134.708 131.039 134.747 131.06C134.785 131.08 134.828 131.091 134.872 131.091C134.929 131.094 134.985 131.078 135.031 131.045H135.014ZM144.971 133.239C144.97 133.171 144.942 133.105 144.894 133.056C144.846 133.007 144.78 132.978 144.712 132.976L134.391 132.88C134.322 132.88 134.257 132.907 134.208 132.956C134.159 133.005 134.132 133.07 134.132 133.139C134.131 133.174 134.137 133.208 134.149 133.24C134.162 133.272 134.181 133.302 134.205 133.326C134.229 133.351 134.258 133.37 134.29 133.384C134.322 133.397 134.357 133.403 134.391 133.403L144.712 133.499C144.747 133.5 144.782 133.495 144.815 133.483C144.848 133.47 144.879 133.452 144.905 133.428C144.93 133.403 144.951 133.374 144.965 133.342C144.979 133.31 144.987 133.275 144.988 133.239H144.971ZM131.122 148.672C131.143 148.626 132.903 143.777 138.195 142.619C138.263 142.604 138.323 142.563 138.36 142.504C138.398 142.445 138.411 142.374 138.396 142.306C138.379 142.239 138.337 142.181 138.278 142.145C138.22 142.108 138.15 142.096 138.082 142.109C132.502 143.33 130.65 148.45 130.629 148.501C130.608 148.567 130.613 148.638 130.643 148.701C130.674 148.763 130.727 148.811 130.792 148.835H130.876C130.931 148.84 130.987 148.827 131.035 148.797C131.082 148.768 131.119 148.724 131.139 148.672H131.122Z" fill="black"/>
<path d="M139.123 145.136H127.29V147.585H128.322L130.458 160.949H135.955L138.091 147.585H139.123V145.136Z" fill="#3576BA"/>
<path opacity="0.3" d="M139.123 145.136H127.29V147.585H128.322L130.458 160.949H135.955L138.091 147.585H139.123V145.136Z" fill="white"/>
<path d="M32.5831 71.0661L18.8183 66.5726L17.5936 63.3373L14.7972 63.2495L9.72266 62.2881L10.3329 63.3373L16.72 67.9729L18.2958 68.7587L32.6918 76.2785L32.5831 71.0661Z" fill="white" stroke="#263238" stroke-width="1.00396" stroke-miterlimit="10"/>
<path d="M17.5935 63.3371L16.281 62.5513L13.6602 63.5127L14.0949 64.0352L17.5935 63.3371Z" fill="white" stroke="#263238" stroke-width="1.00396" stroke-linejoin="round"/>
<path d="M32.5831 71.0661L18.8183 66.5726L17.5936 63.3373L14.7972 63.2495L9.72266 62.2881L10.3329 63.3373L16.72 67.9729L18.2958 68.7587L32.6918 76.2785L32.5831 71.0661Z" fill="white"/>
<mask id="mask0_36_9680" style="mask-type:luminance" maskUnits="userSpaceOnUse" x="9" y="62" width="24" height="15">
<path d="M32.5831 71.0661L18.8183 66.5726L17.5936 63.3373L14.7972 63.2495L9.72266 62.2881L10.3329 63.3373L16.72 67.9729L18.2958 68.7587L32.6918 76.2785L32.5831 71.0661Z" fill="white"/>
</mask>
<g mask="url(#mask0_36_9680)">
<path opacity="0.5" d="M32.5831 71.0661L18.8183 66.5726L17.5936 63.3373L14.7972 63.2495L9.72266 62.2881L10.3329 63.3373L16.72 67.9729L18.2958 68.7587L32.6918 76.2785L32.5831 71.0661Z" fill="#3576BA" stroke="#263238" stroke-width="1.00396" stroke-miterlimit="10"/>
</g>
<path d="M32.5831 71.0661L18.8183 66.5726L17.5936 63.3373L14.7972 63.2495L9.72266 62.2881L10.3329 63.3373L16.72 67.9729L18.2958 68.7587L32.6918 76.2785L32.5831 71.0661Z" stroke="#263238" stroke-width="1.00396" stroke-miterlimit="10"/>
<path d="M17.5935 63.3371L16.281 62.5513L13.6602 63.5127L14.0949 64.0352L17.5935 63.3371Z" fill="white"/>
<mask id="mask1_36_9680" style="mask-type:luminance" maskUnits="userSpaceOnUse" x="13" y="62" width="5" height="3">
<path d="M17.5935 63.3371L16.281 62.5513L13.6602 63.5127L14.0949 64.0352L17.5935 63.3371Z" fill="white"/>
</mask>
<g mask="url(#mask1_36_9680)">
<path opacity="0.5" d="M17.5935 63.3371L16.281 62.5513L13.6602 63.5127L14.0949 64.0352L17.5935 63.3371Z" fill="#3576BA" stroke="#263238" stroke-width="1.00396" stroke-linejoin="round"/>
</g>
<path d="M17.5935 63.3371L16.281 62.5513L13.6602 63.5127L14.0949 64.0352L17.5935 63.3371Z" stroke="#263238" stroke-width="1.00396" stroke-linejoin="round"/>
<path d="M35.5048 41.902C35.5048 41.902 35.2916 43.783 35.8225 44.991C36.3534 46.199 39.3003 50.2912 39.3003 50.2912L33.7994 54.7011C33.7994 54.7011 31.5171 50.1031 31.0824 49.3591C30.6477 48.615 30.1252 45.4132 31.5422 43.1183C32.9592 40.8235 34.999 40.2049 35.5048 41.902Z" fill="white"/>
<mask id="mask2_36_9680" style="mask-type:luminance" maskUnits="userSpaceOnUse" x="30" y="40" width="10" height="15">
<path d="M35.5048 41.902C35.5048 41.902 35.2916 43.783 35.8225 44.991C36.3534 46.199 39.3003 50.2912 39.3003 50.2912L33.7994 54.7011C33.7994 54.7011 31.5171 50.1031 31.0824 49.3591C30.6477 48.615 30.1252 45.4132 31.5422 43.1183C32.9592 40.8235 34.999 40.2049 35.5048 41.902Z" fill="white"/>
</mask>
<g mask="url(#mask2_36_9680)">
<g style="mix-blend-mode:multiply" opacity="0.5">
<path d="M32.6793 47.9463L35.066 52.8954L33.7953 54.7053L31.396 50.4208L32.6793 47.9463Z" fill="#3576BA"/>
</g>
</g>
<path d="M35.5048 41.902C35.5048 41.902 35.2916 43.783 35.8225 44.991C36.3534 46.199 39.3003 50.2912 39.3003 50.2912L33.7994 54.7011C33.7994 54.7011 31.5171 50.1031 31.0824 49.3591C30.6477 48.615 30.1252 45.4132 31.5422 43.1183C32.9592 40.8235 34.999 40.2049 35.5048 41.902Z" stroke="#263238" stroke-width="1.00396" stroke-miterlimit="10"/>
<path d="M37.2103 38.458C36.8717 36.368 34.4766 32.1169 30.677 32.2799C28.2108 32.3886 27.0571 32.886 25.987 33.4921C25.1148 34.0061 24.3017 34.6144 23.5626 35.3063C21.7067 37.5342 21.0546 38.1445 21.4141 39.8499C21.3846 40.5302 21.4912 41.2094 21.7276 41.848C22.2961 43.3653 22.6848 44.356 23.1781 45.0791C23.0276 45.7855 22.6347 47.6498 22.6138 48.0762C22.5929 48.5025 23.8678 48.2057 24.5115 48.0427C25.707 50.7179 27.8973 52.5739 28.5786 52.787C29.7657 53.159 31.6426 51.207 32.6374 49.6938C33.6322 48.1807 32.8798 46.4794 32.884 45.8022C32.8882 45.1251 35.1203 43.637 35.948 43.1647C36.7756 42.6923 37.5447 40.5438 37.2103 38.458Z" fill="white"/>
<mask id="mask3_36_9680" style="mask-type:luminance" maskUnits="userSpaceOnUse" x="21" y="32" width="17" height="21">
<path d="M37.2103 38.458C36.8717 36.368 34.4766 32.1169 30.677 32.2799C28.2108 32.3886 27.0571 32.886 25.987 33.4921C25.1148 34.0061 24.3017 34.6144 23.5626 35.3063C21.7067 37.5342 21.0546 38.1445 21.4141 39.8499C21.3846 40.5302 21.4912 41.2094 21.7276 41.848C22.2961 43.3653 22.6848 44.356 23.1781 45.0791C23.0276 45.7855 22.6347 47.6498 22.6138 48.0762C22.5929 48.5025 23.8678 48.2057 24.5115 48.0427C25.707 50.7179 27.8973 52.5739 28.5786 52.787C29.7657 53.159 31.6426 51.207 32.6374 49.6938C33.6322 48.1807 32.8798 46.4794 32.884 45.8022C32.8882 45.1251 35.1203 43.637 35.948 43.1647C36.7756 42.6923 37.5447 40.5438 37.2103 38.458Z" fill="white"/>
</mask>
<g mask="url(#mask3_36_9680)">
<g style="mix-blend-mode:multiply" opacity="0.5">
<path d="M21.431 39.85C21.4015 40.5302 21.5081 41.2095 21.7445 41.848C22.313 43.3654 22.7018 44.3561 23.195 45.0792C23.0445 45.7856 22.6516 47.6499 22.6307 48.0763C22.6098 48.5026 23.8847 48.2058 24.5284 48.0428C25.7239 50.718 27.9142 52.5739 28.5956 52.7871C29.7827 53.1591 31.6595 51.2071 32.6543 49.6939C32.9029 49.3161 33.0642 48.8878 33.1267 48.4399C33.0723 48.2434 33.0347 48.1222 33.0347 48.1222C33.0347 48.1222 32.4746 50.2749 31.3627 49.9949C30.2508 49.7148 28.5496 47.4869 27.6007 46.7178C26.6519 45.9486 27.0406 44.9371 26.8525 43.7918C26.6644 42.6464 23.8554 41.6391 23.6673 40.9828C23.4792 40.3265 24.1355 37.6095 24.1355 37.6095C24.1355 37.6095 25.2014 36.1883 24.9715 36.7735C24.809 37.2809 24.7501 37.8158 24.7982 38.3464C24.8463 38.8771 25.0005 39.3926 25.2516 39.8625C25.4278 40.2333 25.7073 40.5454 26.0565 40.7611C26.4058 40.9769 26.8099 41.0873 27.2203 41.0789L28.2403 36.0253L26.0876 34.2446L23.5796 35.2896C21.7069 37.5343 21.0674 38.1446 21.431 39.85Z" fill="#3576BA"/>
</g>
</g>
<path d="M37.2103 38.458C36.8717 36.368 34.4766 32.1169 30.677 32.2799C28.2108 32.3886 27.0571 32.886 25.987 33.4921C25.1148 34.0061 24.3017 34.6144 23.5626 35.3063C21.7067 37.5342 21.0546 38.1445 21.4141 39.8499C21.3846 40.5302 21.4912 41.2094 21.7276 41.848C22.2961 43.3653 22.6848 44.356 23.1781 45.0791C23.0276 45.7855 22.6347 47.6498 22.6138 48.0762C22.5929 48.5025 23.8678 48.2057 24.5115 48.0427C25.707 50.7179 27.8973 52.5739 28.5786 52.787C29.7657 53.1591 31.6426 51.207 32.6374 49.6938C33.6322 48.1807 32.8798 46.4794 32.884 45.8022C32.8882 45.1251 35.1203 43.637 35.948 43.1647C36.7756 42.6923 37.5447 40.5438 37.2103 38.458Z" stroke="#263238" stroke-miterlimit="10"/>
<path d="M23.6963 43.8164L24.1143 45.0119C24.1143 45.0119 25.013 45.3087 26.1082 44.1132" stroke="#263238" stroke-miterlimit="10" stroke-linecap="round"/>
<path d="M26.7852 49.4012C26.7852 49.4012 27.78 49.3009 28.1813 47.9048" stroke="#263238" stroke-miterlimit="10" stroke-linecap="round"/>
<path d="M22.998 42.8176C22.998 42.8176 23.2948 41.9189 25.088 41.9189" stroke="#263238" stroke-miterlimit="10" stroke-linecap="round"/>
<path d="M32.1898 30.6162C30.8868 30.4288 29.5727 30.3283 28.2564 30.3152C28.2564 30.3152 24.3188 28.0455 20.5359 30.4657C16.753 32.8859 18.5713 37.1245 18.5713 38.182C18.5713 39.2395 17.3591 39.2437 18.1157 40.6064C18.8723 41.9691 21.4305 41.2167 21.4305 41.2167C21.4575 40.7027 21.5933 40.2003 21.8289 39.7428C22.0646 39.2852 22.3946 38.8829 22.7973 38.5624C24.16 37.5048 25.2468 37.2749 25.6982 37.5801C25.6982 37.5801 25.3973 39.8498 25.8487 40.7569C25.8487 40.7569 27.3619 41.5135 27.8175 41.5135C28.2731 41.5135 27.5207 42.153 29.0297 42.7215C29.3046 42.8202 29.5987 42.8539 29.8888 42.8198C30.1789 42.7857 30.4571 42.6848 30.7017 42.525C30.9232 41.6054 31.4081 40.2218 32.311 40.5437C33.636 41.016 34.8441 44.2764 33.0509 45.3883C35.2077 45.7812 37.8202 41.9649 37.9749 38.4871C38.1295 35.0094 34.4302 31.0091 32.1898 30.6162Z" fill="#263238"/>
<path d="M25.7651 36.0877C25.7651 36.0877 26.877 35.49 28.2397 36.7691C29.6024 38.0482 32.2525 39.7578 35.7637 38.8173" stroke="white" stroke-width="0.5" stroke-linecap="round" stroke-linejoin="round"/>
<path d="M25.6104 35.0636C25.6104 35.0636 26.3753 33.8682 27.6544 33.8682C28.9335 33.8682 31.9222 35.6614 34.3089 35.6614" stroke="white" stroke-width="0.5" stroke-linecap="round" stroke-linejoin="round"/>
<path d="M24.741 37.3668C24.741 37.3668 23.2906 35.5777 21.9279 37.0282C20.5652 38.4786 21.4305 39.8497 21.4305 39.8497" stroke="white" stroke-width="0.5" stroke-linecap="round" stroke-linejoin="round"/>
<path d="M18.9434 38.5624C19.7746 37.8128 20.2913 36.7764 20.3896 35.6614C20.561 33.7846 23.1234 32.1628 24.741 33.701" stroke="white" stroke-width="0.5" stroke-linecap="round" stroke-linejoin="round"/>
<path d="M21.5854 31.7366C21.5854 31.7366 24.1478 29.2621 26.2796 32.418" stroke="white" stroke-width="0.5" stroke-linecap="round" stroke-linejoin="round"/>
<path d="M42.4393 153.404C42.4393 153.404 44.0152 155.853 43.8396 157.429L43.6683 159.005C43.6683 159.005 37.8873 160.589 36.6626 160.589C35.4378 160.589 28.9547 159.975 28.9547 159.975L28.6746 158.863C28.655 158.781 28.6642 158.694 28.7008 158.618C28.7373 158.542 28.7989 158.481 28.8752 158.445L34.6562 155.749L36.4787 153.755L42.4393 153.404Z" fill="white" stroke="#263238" stroke-width="1.00396" stroke-miterlimit="10"/>
<path d="M37.5403 159.356C39.1078 159.477 42.0839 158.52 43.8103 157.91L43.689 159.005C43.689 159.005 37.8872 160.589 36.6625 160.589C35.4377 160.589 28.9545 159.975 28.9545 159.975L28.7539 159.18C29.7905 159.185 35.467 159.197 37.5403 159.356Z" fill="#3576BA" stroke="#263238" stroke-width="1.00396" stroke-miterlimit="10"/>
<path d="M34.6645 155.749L26.2502 159.411C26.2502 159.411 25.5312 161.212 26.2502 161.572C26.9692 161.931 42.6442 161.572 42.6442 161.572C42.6442 161.572 43.7268 158.725 42.0172 156.815C40.3075 154.905 34.6645 155.749 34.6645 155.749Z" fill="white" stroke="#263238" stroke-width="1.00396" stroke-miterlimit="10"/>
<path d="M42.6443 161.571C42.6443 161.571 26.9693 161.931 26.2504 161.571C25.9034 161.396 25.8909 160.89 25.9703 160.409H42.9202C42.8648 160.804 42.7724 161.193 42.6443 161.571Z" fill="#3576BA" stroke="#263238" stroke-width="1.00396" stroke-miterlimit="10"/>
<path d="M30.685 92.1247C30.685 92.1247 28.4863 101.868 27.6545 107.963C26.8227 114.057 26.3336 126.267 26.5092 127.667C26.6848 129.068 35.4377 152.53 35.4377 152.53L36.3113 154.62L42.4392 153.395C42.4392 153.395 39.6386 144.467 38.5894 139.564C37.5402 134.66 35.2454 126.606 35.2454 125.205C35.2454 123.805 40.6794 97.0613 41.0681 95.3057C41.4569 93.5501 43.2208 90.854 43.2208 90.854L31.4876 90.6157L30.685 92.1247Z" fill="#3576BA" stroke="#263238" stroke-width="1.00396" stroke-miterlimit="10"/>
<path d="M30.6852 92.1248C30.6852 92.1248 29.3978 101.024 29.9286 107.21C30.4595 113.397 31.6006 126.568 31.6006 128.528C31.6006 130.489 34.7649 142.197 34.9446 145.875C35.2247 151.188 34.8318 153.817 34.8318 153.817L34.6437 155.744C34.6437 155.744 38.3346 156.271 39.1414 156.501C40.0731 156.741 41.0347 156.845 41.9963 156.81C41.9963 156.81 43.3381 150.904 43.3381 145.871C43.3381 140.839 42.222 130.48 41.6661 126.284C41.1101 122.087 42.8616 105.898 43.8564 102.876C44.8512 99.8536 47.0248 93.4541 45.5618 90.1853C44.0988 86.9165 30.6852 92.1248 30.6852 92.1248Z" fill="#3576BA" stroke="#263238" stroke-width="1.00396" stroke-miterlimit="10"/>
<path d="M47.1877 88.5469L47.0539 92.5262C47.0539 92.5262 44.6713 92.9986 41.4611 93.5545C38.8109 94.0143 32.1564 93.4333 29.9159 93.2159C29.7117 93.1978 29.523 93.0999 29.3907 92.9433C29.2584 92.7867 29.1932 92.5843 29.2095 92.3799L29.4268 88.7851L47.1877 88.5469Z" fill="#263238"/>
<path d="M37.8749 48.8784C37.8749 48.8784 34.1129 52.9456 32.6959 55.4745C31.2789 58.0034 30.7188 61.8782 30.1879 64.9296C29.6571 67.981 31.095 75.1455 30.6895 78.4352L29.4063 88.7974C29.4063 88.7974 29.1304 89.4997 30.0542 90.2688C30.9779 91.0379 35.4882 91.318 39.5637 91.5228C41.0517 91.598 45.4951 90.6408 46.2224 90.5948C47.1002 90.5405 47.1295 89.4244 47.1671 88.5466C47.3426 84.421 48.0867 73.4234 48.5757 68.6331C49.5831 58.8644 44.0697 49.4344 37.8749 48.8784Z" fill="white" stroke="#263238" stroke-width="1.00396" stroke-miterlimit="10"/>
<g style="mix-blend-mode:multiply">
<path d="M48.1156 74.1887C48.2828 72.0193 48.45 70.0505 48.5963 68.6335C48.6381 68.2155 48.6632 67.7975 48.6841 67.3795L38.6897 69.0515L30.104 66.1255C30.1049 67.902 30.2054 69.6771 30.405 71.4424L38.8277 73.8L48.1156 74.1887Z" fill="#3576BA"/>
</g>
<g style="mix-blend-mode:multiply">
<path d="M37.5028 49.2881C36.9343 49.9193 35.8057 51.2025 34.7314 52.5652L41.0767 59.0149L43.1667 58.1789L37.5028 49.2881Z" fill="#3576BA"/>
</g>
<path d="M37.8749 48.8784C37.8749 48.8784 34.1129 52.9456 32.6959 55.4745C32.2757 56.243 31.9354 57.0526 31.6802 57.8905L39.246 49.1501C38.799 49.0147 38.3398 48.9237 37.8749 48.8784Z" fill="#263238"/>
<g style="mix-blend-mode:multiply">
<path d="M30.4805 63.2829L38.69 65.9832L48.6593 64.8379C48.503 62.3544 47.9513 59.9118 47.0249 57.6023L38.9868 60.8251L31.8013 57.5688C31.2138 59.4365 30.7722 61.3469 30.4805 63.2829Z" fill="#3576BA"/>
</g>
<g style="mix-blend-mode:multiply">
<path d="M44.613 84.421C40.4492 85.1201 36.1768 84.771 32.1817 83.4052L30.1795 82.7197L29.5566 87.7357L31.8389 88.3753C36.1776 89.5883 40.7123 89.9377 45.1857 89.4035L47.029 89.182C47.125 88.9789 47.179 88.7585 47.1879 88.5341C47.238 87.418 47.3258 85.7962 47.4387 83.9361L44.613 84.421Z" fill="#3576BA"/>
</g>
<g style="mix-blend-mode:multiply">
<path d="M45.7291 77.5908C41.5651 78.2927 37.2917 77.9421 33.2978 76.5709L30.748 75.6973C30.8112 76.608 30.7986 77.5224 30.7104 78.431L30.4136 80.8428L32.955 81.5534C37.2921 82.7678 41.8254 83.1186 46.2976 82.5859L47.5516 82.4354C47.6561 80.7634 47.7773 78.9827 47.9069 77.223L45.7291 77.5908Z" fill="#3576BA"/>
</g>
<path d="M6.51254 59.9148L14.5947 66.4131L14.9431 65.9798L6.8609 59.4816L6.51254 59.9148Z" fill="#263238"/>
<path d="M41.7663 53.3887C41.7663 53.3887 44.7299 55.4076 44.7968 60.177C44.8261 62.267 44.6087 64.2191 44.128 67.6425C43.6473 71.0659 40.6628 82.214 38.3387 83.5683C36.0146 84.9226 32.4073 82.3644 32.4073 82.3644L14.96 70.7817L10.7423 67.375L8.65234 63.429L9.3086 62.175L14.4542 66.121L11.6828 63.5586L12.2262 62.8689L13.2294 63.567L16.1554 64.6621L16.795 68.8421L17.6979 69.4608L34.3886 75.5594C34.3886 75.5594 34.1796 66.5766 34.3343 64.8586C34.4889 63.1406 34.7021 58.8227 36.5413 55.6919" fill="white"/>
<mask id="mask4_36_9680" style="mask-type:luminance" maskUnits="userSpaceOnUse" x="8" y="53" width="37" height="31">
<path d="M41.7663 53.3887C41.7663 53.3887 44.7299 55.4076 44.7968 60.177C44.8261 62.267 44.6087 64.2191 44.128 67.6425C43.6473 71.0659 40.6628 82.214 38.3387 83.5683C36.0146 84.9226 32.4073 82.3644 32.4073 82.3644L14.96 70.7817L10.7423 67.375L8.65234 63.429L9.3086 62.175L14.4542 66.121L11.6828 63.5586L12.2262 62.8689L13.2294 63.567L16.1554 64.6621L16.795 68.8421L17.6979 69.4608L34.3886 75.5594C34.3886 75.5594 34.1796 66.5766 34.3343 64.8586C34.4889 63.1406 34.7021 58.8227 36.5413 55.6919" fill="white"/>
</mask>
<g mask="url(#mask4_36_9680)">
<g style="mix-blend-mode:multiply" opacity="0.5">
<path d="M34.2713 68.7708C34.2713 71.8724 34.3758 75.5592 34.3758 75.5592L17.7018 69.4856L16.7989 68.867L16.1594 64.687L13.2334 63.5918L12.2344 62.8812L11.691 63.5709L14.4539 66.1207L9.30837 62.1748L8.68555 63.4079L10.7755 67.3538L14.9932 70.7814L16.0549 71.4878L39.1076 78.9157L34.2713 68.7708Z" fill="#3576BA"/>
</g>
</g>
<path d="M41.7663 53.3887C41.7663 53.3887 44.7299 55.4076 44.7968 60.177C44.8261 62.267 44.6087 64.2191 44.128 67.6425C43.6473 71.0659 40.6628 82.214 38.3387 83.5683C36.0146 84.9226 32.4073 82.3644 32.4073 82.3644L14.96 70.7817L10.7423 67.375L8.65234 63.429L9.3086 62.175L14.4542 66.121L11.6828 63.5586L12.2262 62.8689L13.2294 63.567L16.1554 64.6621L16.795 68.8421L17.6979 69.4608L34.3886 75.5594C34.3886 75.5594 34.1796 66.5766 34.3343 64.8586C34.4889 63.1406 34.7021 58.8227 36.5413 55.6919" stroke="#263238" stroke-width="1.00396" stroke-miterlimit="10"/>
<path d="M34.3884 75.5596L40.7587 80.1576L42.4098 77.2316C42.4098 77.2316 43.551 76.3329 43.7182 75.6557C43.8854 74.9785 43.6722 73.8792 43.8436 73.202C44.0149 72.5249 44.8677 71.8895 44.9471 70.251C45.0265 68.6124 44.9471 67.2455 44.9471 67.2455C44.9471 67.2455 46.3265 61.5733 46.176 59.1071C46.0255 56.6409 43.6471 52.2811 41.741 52.185C39.8349 52.0889 37.3562 52.3773 35.4334 55.2866C33.5106 58.1958 33.9035 66.6896 33.6026 67.2205C33.3016 67.7513 33.7196 70.3722 33.7196 70.3722C33.5526 70.4968 33.414 70.6555 33.3131 70.8379C33.2121 71.0202 33.1512 71.222 33.1344 71.4297C33.101 72.1111 33.8366 73.7872 33.8366 73.7872L34.3884 75.5596Z" fill="white" stroke="#263238" stroke-width="1.00396" stroke-miterlimit="10"/>
<g style="mix-blend-mode:multiply">
<path d="M33.7701 65.0386C33.7832 65.768 33.7287 66.497 33.6071 67.2164C33.3396 67.6929 33.6447 69.8456 33.7116 70.2845C37.2946 71.3973 41.0833 71.6832 44.7928 71.1205C44.8725 70.8298 44.9201 70.5312 44.9349 70.2301C45.0185 68.5958 44.9349 67.2247 44.9349 67.2247C44.9349 67.2247 45.0561 66.7189 45.2233 65.9498C41.3817 66.194 37.5248 65.8871 33.7701 65.0386Z" fill="#3576BA"/>
</g>
<g style="mix-blend-mode:multiply">
<path d="M35.1742 55.7505C34.5765 56.9501 34.2421 58.7517 34.0498 60.5784C37.8445 62.0266 41.9357 62.5245 45.967 62.0289C46.1278 61.0621 46.1992 60.0827 46.1802 59.1029C46.1078 58.3284 45.9248 57.5682 45.6368 56.8456C42.1168 56.9278 38.6008 56.5598 35.1742 55.7505Z" fill="#3576BA"/>
</g>
<path d="M33.8369 73.833L34.3761 75.5593L40.7465 80.1574L42.3976 77.2313C42.3976 77.2313 43.5387 76.3326 43.7059 75.6555C43.7357 75.5377 43.7539 75.4173 43.7602 75.296C40.4032 75.238 37.0678 74.7463 33.8369 73.833Z" fill="#263238"/>
<path d="M38.4475 156.447C38.4475 156.447 38.5896 152.827 39.2835 147.535C39.9773 142.243 38.3095 134.727 38.0295 133.473C37.7494 132.219 38.1716 129.436 37.8915 128.457C37.6115 127.479 36.2571 123.308 37.0555 118.467C37.8539 113.627 38.5018 100.832 38.5018 100.832C38.5018 100.832 36.4912 99.1975 35.9018 97.0699C35.3125 94.9422 35.7639 94.2734 35.7639 94.2734" stroke="#263238" stroke-width="1.00396" stroke-miterlimit="10"/>
<path d="M39.3797 94.4697L38.6064 98.75" stroke="#263238" stroke-width="1.00396" stroke-miterlimit="10"/>
</svg>
