<svg width="25" height="22" viewBox="0 0 25 22" fill="none" xmlns="http://www.w3.org/2000/svg">
<path d="M23.4326 9.20057L12.9664 0.420464C12.7308 0.222376 12.4329 0.11377 12.125 0.11377C11.8172 0.11377 11.5193 0.222376 11.2836 0.420464L0.817285 9.20057C0.423602 9.53302 0.177412 10.0077 0.132448 10.521C0.0874839 11.0343 0.247397 11.5446 0.577285 11.9404L0.6903 12.0751C1.02211 12.4697 1.4969 12.7166 2.01052 12.7616C2.52413 12.8066 3.03462 12.646 3.43 12.3151L4.00038 11.8366V20.5301C4.00079 20.8898 4.14387 21.2347 4.39823 21.489C4.65259 21.7434 4.99746 21.8865 5.35718 21.8869H9.44392C9.59311 21.8869 9.73618 21.8276 9.84167 21.7221C9.94716 21.6166 10.0064 21.4736 10.0064 21.3244V15.1408H14.6241V21.3244C14.6241 21.4736 14.6833 21.6166 14.7888 21.7221C14.8943 21.8276 15.0374 21.8869 15.1866 21.8869H19.2734C19.6331 21.8865 19.978 21.7434 20.2323 21.489C20.4867 21.2347 20.6297 20.8898 20.6301 20.5301V12.156L20.8199 12.3151C21.2152 12.6461 21.7257 12.8066 22.2394 12.7617C22.753 12.7167 23.2278 12.4698 23.5596 12.0751L23.6726 11.9404C24.0025 11.5446 24.1624 11.0343 24.1174 10.521C24.0725 10.0077 23.8263 9.53302 23.4326 9.20057ZM19.5051 20.5303C19.5051 20.5917 19.4806 20.6506 19.4372 20.6941C19.3937 20.7375 19.3348 20.762 19.2734 20.7621H15.7491V14.8724C15.7488 14.6453 15.6584 14.4276 15.4978 14.267C15.3372 14.1064 15.1195 14.0161 14.8924 14.0158H9.73816C9.51104 14.016 9.29331 14.1064 9.1327 14.267C8.9721 14.4276 8.88173 14.6453 8.88142 14.8724V20.7619H5.35718C5.29572 20.7618 5.23681 20.7374 5.19335 20.6939C5.1499 20.6504 5.12545 20.5915 5.12538 20.5301V10.8929L12.1249 5.02101L19.5051 11.2122V20.5303ZM22.8108 11.2175L22.6977 11.3522C22.5564 11.5163 22.3566 11.6186 22.1409 11.6375C21.9252 11.6564 21.7106 11.5904 21.5429 11.4534L12.6191 3.9675C12.4807 3.85119 12.3057 3.78742 12.1249 3.78742C11.9441 3.78742 11.7692 3.85119 11.6308 3.9675L2.70696 11.4532C2.53924 11.5902 2.32468 11.6563 2.10897 11.6374C1.89326 11.6185 1.69346 11.5161 1.55214 11.352L1.43913 11.2173C1.30111 11.0501 1.2344 10.8352 1.25337 10.6192C1.27235 10.4032 1.3755 10.2033 1.54057 10.0627L12.0065 1.2825C12.0395 1.25417 12.0815 1.2386 12.1249 1.2386C12.1684 1.2386 12.2104 1.25417 12.2434 1.2825L22.7096 10.0627C22.8746 10.2033 22.9778 10.4033 22.9967 10.6193C23.0156 10.8354 22.9489 11.0502 22.8108 11.2175Z" fill="#818181"/>
</svg>
