<svg width="21" height="20" viewBox="0 0 21 20" fill="none" xmlns="http://www.w3.org/2000/svg">
<path fill-rule="evenodd" clip-rule="evenodd" d="M2.51984 10C2.51984 5.3975 6.28052 1.66667 10.9198 1.66667C15.5592 1.66667 19.3198 5.3975 19.3198 10C19.3198 14.6025 15.5592 18.3333 10.9198 18.3333C6.28052 18.3333 2.51984 14.6025 2.51984 10ZM10.9198 0C5.35316 0 0.839844 4.4775 0.839844 10C0.839844 15.5225 5.35316 20 10.9198 20C16.4865 20 20.9998 15.5225 20.9998 10C20.9998 4.4775 16.4865 0 10.9198 0ZM10.0798 5.83333C10.0798 5.61232 10.1683 5.40036 10.3259 5.24408C10.4834 5.0878 10.6971 5 10.9198 5C11.1426 5 11.3563 5.0878 11.5138 5.24408C11.6713 5.40036 11.7598 5.61232 11.7598 5.83333C11.7598 6.05435 11.6713 6.26631 11.5138 6.42259C11.3563 6.57887 11.1426 6.66667 10.9198 6.66667C10.6971 6.66667 10.4834 6.57887 10.3259 6.42259C10.1683 6.26631 10.0798 6.05435 10.0798 5.83333ZM10.9198 15C11.1426 15 11.3563 14.9122 11.5138 14.7559C11.6713 14.5996 11.7598 14.3877 11.7598 14.1667V9.16667C11.7598 8.94565 11.6713 8.73369 11.5138 8.57741C11.3563 8.42113 11.1426 8.33333 10.9198 8.33333C10.6971 8.33333 10.4834 8.42113 10.3259 8.57741C10.1683 8.73369 10.0798 8.94565 10.0798 9.16667V14.1667C10.0798 14.3877 10.1683 14.5996 10.3259 14.7559C10.4834 14.9122 10.6971 15 10.9198 15Z" fill="#031D4D"/>
</svg>
