<svg width="17" height="17" viewBox="0 0 17 17" fill="none" xmlns="http://www.w3.org/2000/svg">
<path d="M12.3793 0.292969H4.90912C2.47789 0.292969 0.5 2.27086 0.5 4.70209V12.1723C0.5 14.6034 2.47789 16.5813 4.90912 16.5813H12.3794C14.8105 16.5813 16.7884 14.6034 16.7884 12.1723V4.70209C16.7884 2.27086 14.8105 0.292969 12.3793 0.292969ZM8.64421 12.8909C6.18838 12.8909 4.19049 10.893 4.19049 8.43715C4.19049 5.98132 6.18839 3.98343 8.64421 3.98343C11.1 3.98343 13.0979 5.98132 13.0979 8.43715C13.0979 10.893 11.1 12.8909 8.64421 12.8909ZM13.2044 5.03374C12.4787 5.03374 11.8884 4.44346 11.8884 3.71772C11.8884 2.99198 12.4787 2.40157 13.2044 2.40157C13.9302 2.40157 14.5206 2.99198 14.5206 3.71772C14.5206 4.44346 13.9302 5.03374 13.2044 5.03374Z" fill="#BF3D1A"/>
<path d="M8.64433 4.93835C6.71516 4.93835 5.14551 6.50789 5.14551 8.43718C5.14551 10.3663 6.71518 11.936 8.64433 11.936C10.5736 11.936 12.1431 10.3663 12.1431 8.43718C12.1431 6.50789 10.5736 4.93835 8.64433 4.93835Z" fill="#BF3D1A"/>
<path d="M13.2049 3.35657C13.0058 3.35657 12.8438 3.51862 12.8438 3.71771C12.8438 3.91679 13.0058 4.07883 13.2049 4.07883C13.4041 4.07883 13.5661 3.91691 13.5661 3.71771C13.5661 3.51849 13.4041 3.35657 13.2049 3.35657Z" fill="#BF3D1A"/>
</svg>
