<svg width="14" height="18" viewBox="0 0 14 18" fill="none" xmlns="http://www.w3.org/2000/svg">
<path d="M7.01959 2.01944C5.59093 2.01944 4.22079 2.56893 3.21057 3.54703C2.20036 4.52513 1.63283 5.85172 1.63283 7.23496C1.63283 9.36736 3.00414 11.4245 4.50936 13.0182C5.27942 13.8297 6.11918 14.5764 7.01959 15.2505C7.91999 14.5769 8.75975 13.8307 9.52983 13.0197C11.035 11.4245 12.4064 9.3681 12.4064 7.23496C12.4064 5.85172 11.8388 4.52513 10.8286 3.54703C9.8184 2.56893 8.44825 2.01944 7.01959 2.01944ZM7.01959 17.0804L6.58327 16.7898L6.58096 16.7883L6.57634 16.7846L6.56095 16.7741L6.50323 16.7346C6.18459 16.5104 5.87304 16.2768 5.56901 16.0343C4.78976 15.4145 4.05615 14.7428 3.37352 14.0241C1.80059 12.3581 0.09375 9.94479 0.09375 7.23496C0.09375 5.45651 0.823435 3.75089 2.12228 2.49334C3.42113 1.23578 5.18275 0.529297 7.01959 0.529297C8.85644 0.529297 10.6181 1.23578 11.9169 2.49334C13.2158 3.75089 13.9454 5.45651 13.9454 7.23496C13.9454 9.94479 12.2386 12.3588 10.6657 14.0241C9.77444 14.9626 8.79667 15.8205 7.7445 16.5871C7.65682 16.6505 7.56832 16.7129 7.47901 16.7741L7.46285 16.7846L7.45823 16.7883L7.45669 16.789L7.01959 17.0796V17.0804ZM7.01959 5.74481C6.61141 5.74481 6.21994 5.90181 5.9313 6.18126C5.64267 6.46072 5.48052 6.83975 5.48052 7.23496C5.48052 7.63017 5.64267 8.00919 5.9313 8.28865C6.21994 8.56811 6.61141 8.7251 7.01959 8.7251C7.42778 8.7251 7.81925 8.56811 8.10789 8.28865C8.39652 8.00919 8.55867 7.63017 8.55867 7.23496C8.55867 6.83975 8.39652 6.46072 8.10789 6.18126C7.81925 5.90181 7.42778 5.74481 7.01959 5.74481ZM3.94144 7.23496C3.94144 6.44453 4.26575 5.68648 4.84301 5.12757C5.42028 4.56866 6.20322 4.25466 7.01959 4.25466C7.83597 4.25466 8.61891 4.56866 9.19618 5.12757C9.77344 5.68648 10.0977 6.44453 10.0977 7.23496C10.0977 8.02538 9.77344 8.78343 9.19618 9.34234C8.61891 9.90126 7.83597 10.2153 7.01959 10.2153C6.20322 10.2153 5.42028 9.90126 4.84301 9.34234C4.26575 8.78343 3.94144 8.02538 3.94144 7.23496Z" fill="#3576BA"/>
</svg>
