<svg width="24" height="25" viewBox="0 0 24 25" fill="none" xmlns="http://www.w3.org/2000/svg">
<path d="M21 5.09619H3C2.60218 5.09619 2.22064 5.25423 1.93934 5.53553C1.65804 5.81684 1.5 6.19837 1.5 6.59619V18.5962C1.5 18.994 1.65804 19.3755 1.93934 19.6569C2.22064 19.9382 2.60218 20.0962 3 20.0962H21C21.3978 20.0962 21.7794 19.9382 22.0607 19.6569C22.342 19.3755 22.5 18.994 22.5 18.5962V6.59619C22.5 6.19837 22.342 5.81684 22.0607 5.53553C21.7794 5.25423 21.3978 5.09619 21 5.09619ZM19.35 6.59619L12 11.6812L4.65 6.59619H19.35ZM3 18.5962V7.27869L11.5725 13.2112C11.698 13.2983 11.8472 13.345 12 13.345C12.1528 13.345 12.302 13.2983 12.4275 13.2112L21 7.27869V18.5962H3Z" fill="white"/>
</svg>
