<svg width="25" height="24" viewBox="0 0 25 24" fill="none" xmlns="http://www.w3.org/2000/svg">
<g clip-path="url(#clip0_1258_2149)">
<path d="M9.89258 11.4375H6.0957C4.81626 11.4375 3.77539 10.3966 3.77539 9.11719V5.32031C3.77539 4.04087 4.81626 3 6.0957 3H9.89258C11.172 3 12.2129 4.04087 12.2129 5.32031V9.11719C12.2129 10.3966 11.172 11.4375 9.89258 11.4375ZM6.0957 4.125C5.43659 4.125 4.90039 4.6612 4.90039 5.32031V9.11719C4.90039 9.7763 5.43659 10.3125 6.0957 10.3125H9.89258C10.5517 10.3125 11.0879 9.7763 11.0879 9.11719V5.32031C11.0879 4.6612 10.5517 4.125 9.89258 4.125H6.0957Z" fill="#818181"/>
<path d="M19.4551 11.4375H15.6582C14.3788 11.4375 13.3379 10.3966 13.3379 9.11719V5.32031C13.3379 4.04087 14.3788 3 15.6582 3H19.4551C20.7345 3 21.7754 4.04087 21.7754 5.32031V9.11719C21.7754 10.3966 20.7345 11.4375 19.4551 11.4375ZM15.6582 4.125C14.9991 4.125 14.4629 4.6612 14.4629 5.32031V9.11719C14.4629 9.7763 14.9991 10.3125 15.6582 10.3125H19.4551C20.1142 10.3125 20.6504 9.7763 20.6504 9.11719V5.32031C20.6504 4.6612 20.1142 4.125 19.4551 4.125H15.6582Z" fill="#818181"/>
<path d="M17.5566 21C15.2304 21 13.3379 19.1075 13.3379 16.7812C13.3379 14.455 15.2304 12.5625 17.5566 12.5625C19.8829 12.5625 21.7754 14.455 21.7754 16.7812C21.7754 19.1075 19.8829 21 17.5566 21ZM17.5566 13.6875C15.8508 13.6875 14.4629 15.0754 14.4629 16.7812C14.4629 18.4871 15.8508 19.875 17.5566 19.875C19.2625 19.875 20.6504 18.4871 20.6504 16.7812C20.6504 15.0754 19.2625 13.6875 17.5566 13.6875Z" fill="#818181"/>
<path d="M9.89258 21H6.0957C4.81626 21 3.77539 19.9591 3.77539 18.6797V14.8828C3.77539 13.6034 4.81626 12.5625 6.0957 12.5625H9.89258C11.172 12.5625 12.2129 13.6034 12.2129 14.8828V18.6797C12.2129 19.9591 11.172 21 9.89258 21ZM6.0957 13.6875C5.43659 13.6875 4.90039 14.2237 4.90039 14.8828V18.6797C4.90039 19.3388 5.43659 19.875 6.0957 19.875H9.89258C10.5517 19.875 11.0879 19.3388 11.0879 18.6797V14.8828C11.0879 14.2237 10.5517 13.6875 9.89258 13.6875H6.0957Z" fill="#818181"/>
</g>
<defs>
<clipPath id="clip0_1258_2149">
<rect width="18" height="18" fill="white" transform="translate(3.77539 3)"/>
</clipPath>
</defs>
</svg>
