<svg width="27" height="26" viewBox="0 0 27 26" fill="none" xmlns="http://www.w3.org/2000/svg">
<path d="M15.0781 7.56008C15.0792 6.20586 14.6873 4.87944 13.9486 3.73654C13.2098 2.59364 12.1548 1.6817 10.9074 1.10779C9.65998 0.533872 8.27195 0.3218 6.90626 0.496466C5.54056 0.671133 4.25388 1.22529 3.19727 2.09388C2.14067 2.96247 1.35799 4.10944 0.941121 5.40014C0.524254 6.69083 0.490503 8.07169 0.843828 9.38059C1.19715 10.6895 1.92289 11.8721 2.93584 12.7896C3.94879 13.7071 5.20691 14.3214 6.5625 14.5604V15.515H6.13671C6.02379 15.515 5.91549 15.5591 5.83564 15.6376C5.75579 15.7161 5.71093 15.8226 5.71093 15.9337V23.4699C5.71093 24.0251 5.93523 24.5575 6.33448 24.9501C6.73372 25.3427 7.27522 25.5633 7.83984 25.5633C8.40446 25.5633 8.94596 25.3427 9.3452 24.9501C9.74445 24.5575 9.96875 24.0251 9.96875 23.4699V15.9337C9.96875 15.8226 9.92389 15.7161 9.84404 15.6376C9.76419 15.5591 9.65589 15.515 9.54296 15.515H9.11718V14.5604C10.7874 14.2651 12.2991 13.4025 13.3886 12.1231C14.478 10.8437 15.076 9.22876 15.0781 7.56008ZM9.11718 23.4699C9.11718 23.803 8.98261 24.1225 8.74306 24.358C8.50351 24.5936 8.17861 24.7259 7.83984 24.7259C7.50107 24.7259 7.17617 24.5936 6.93662 24.358C6.69707 24.1225 6.5625 23.803 6.5625 23.4699V16.3523H9.11718V23.4699ZM7.41406 15.515V14.6567C7.55457 14.6651 7.69507 14.6776 7.83984 14.6776C7.98461 14.6776 8.12511 14.6651 8.26562 14.6567V15.515H7.41406ZM7.83984 13.8403C6.57667 13.8403 5.34186 13.4719 4.29157 12.7819C3.24128 12.0918 2.42268 11.111 1.93928 9.96341C1.45589 8.81585 1.32941 7.55312 1.57584 6.33488C1.82227 5.11664 2.43055 3.99762 3.32375 3.11932C4.21695 2.24102 5.35495 1.64289 6.59385 1.40057C7.83275 1.15825 9.11691 1.28262 10.2839 1.75795C11.4509 2.23328 12.4484 3.03823 13.1502 4.071C13.852 5.10377 14.2266 6.31798 14.2266 7.56008C14.2245 9.22508 13.551 10.8213 12.3537 11.9986C11.1564 13.176 9.53308 13.8383 7.83984 13.8403Z" fill="#818181"/>
<path d="M7.41406 17.1895H8.26562V18.0268H7.41406V17.1895Z" fill="#818181"/>
<path d="M7.41406 18.8643H8.26562V23.8884H7.41406V18.8643Z" fill="#818181"/>
<path d="M25.706 18.7513L24.8544 15.8205C24.8324 15.7407 24.7864 15.6692 24.7224 15.6154L18.7615 10.5912C18.6843 10.5264 18.5862 10.4907 18.4847 10.4907C18.3832 10.4907 18.2851 10.5264 18.208 10.5912L12.247 15.6154C12.183 15.6692 12.137 15.7407 12.115 15.8205L11.2635 18.7513C11.2383 18.8374 11.2422 18.9291 11.2744 19.0128C11.3066 19.0966 11.3655 19.1679 11.4423 19.216C11.5203 19.2646 11.6121 19.2872 11.7041 19.2804C11.7961 19.2736 11.8835 19.2378 11.9532 19.1783L13.3753 17.9558V25.1445C13.3753 25.2556 13.4202 25.362 13.5 25.4406C13.5799 25.5191 13.6882 25.5632 13.8011 25.5632H23.1683C23.2812 25.5632 23.3895 25.5191 23.4694 25.4406C23.5492 25.362 23.5941 25.2556 23.5941 25.1445V17.9558L25.0162 19.1783C25.0855 19.2387 25.1729 19.275 25.2652 19.2818C25.3575 19.2886 25.4495 19.2655 25.5271 19.216C25.6039 19.1679 25.6628 19.0966 25.695 19.0128C25.7272 18.9291 25.7311 18.8374 25.706 18.7513ZM20.1878 24.7258H16.7816V19.7017H20.1878V24.7258ZM22.7425 24.7258H21.0394V19.283C21.0394 19.172 20.9945 19.0655 20.9147 18.987C20.8348 18.9084 20.7265 18.8643 20.6136 18.8643H16.3558C16.2429 18.8643 16.1346 18.9084 16.0547 18.987C15.9749 19.0655 15.93 19.172 15.93 19.283V24.7258H14.2269V17.2231L18.4847 13.5597L22.7425 17.2231V24.7258ZM18.7657 12.6888C18.688 12.6217 18.5881 12.5847 18.4847 12.5847C18.3813 12.5847 18.2814 12.6217 18.2037 12.6888L12.4769 17.6125L12.8985 16.168L18.4847 11.4621L24.071 16.168L24.4925 17.6125L18.7657 12.6888Z" fill="#818181"/>
<path d="M22.3164 0.442383C21.3006 0.443933 20.3268 0.841427 19.6085 1.54775C18.8902 2.25407 18.486 3.2116 18.4844 4.21049C18.4844 6.8398 21.8395 10.9973 21.9843 11.1689C22.0238 11.2185 22.0742 11.2585 22.1317 11.2861C22.1893 11.3136 22.2524 11.3279 22.3164 11.3279C22.3804 11.3279 22.4436 11.3136 22.5011 11.2861C22.5586 11.2585 22.609 11.2185 22.6485 11.1689C22.7933 10.9973 26.1484 6.8398 26.1484 4.21049C26.1469 3.2116 25.7426 2.25407 25.0243 1.54775C24.306 0.841427 23.3322 0.443933 22.3164 0.442383ZM22.3164 10.2185C21.4776 9.10904 19.3359 6.09873 19.3359 4.21049C19.3359 3.43321 19.6499 2.68776 20.2089 2.13814C20.7678 1.58852 21.5259 1.27974 22.3164 1.27974C23.1069 1.27974 23.865 1.58852 24.4239 2.13814C24.9829 2.68776 25.2969 3.43321 25.2969 4.21049C25.2969 6.09873 23.1552 9.10904 22.3164 10.2185Z" fill="#818181"/>
<path d="M24.4453 4.21058C24.4453 3.79655 24.3205 3.39181 24.0865 3.04756C23.8526 2.7033 23.5201 2.43498 23.1311 2.27654C22.7421 2.11809 22.314 2.07664 21.9011 2.15741C21.4881 2.23819 21.1088 2.43756 20.811 2.73033C20.5133 3.0231 20.3106 3.3961 20.2284 3.80218C20.1463 4.20826 20.1884 4.62917 20.3496 5.01169C20.5107 5.39421 20.7836 5.72115 21.1337 5.95118C21.4837 6.1812 21.8953 6.30398 22.3164 6.30398C22.8808 6.30331 23.4219 6.08255 23.821 5.6901C24.2201 5.29766 24.4446 4.76558 24.4453 4.21058ZM21.0391 4.21058C21.0391 3.96216 21.114 3.71932 21.2543 3.51277C21.3947 3.30621 21.5942 3.14522 21.8276 3.05016C22.061 2.95509 22.3178 2.93022 22.5656 2.97868C22.8134 3.02714 23.041 3.14677 23.2196 3.32243C23.3983 3.49809 23.5199 3.7219 23.5692 3.96554C23.6185 4.20919 23.5932 4.46174 23.4965 4.69125C23.3998 4.92076 23.2361 5.11692 23.0261 5.25494C22.816 5.39295 22.569 5.46662 22.3164 5.46662C21.9776 5.46662 21.6527 5.33429 21.4132 5.09874C21.1736 4.86318 21.0391 4.5437 21.0391 4.21058Z" fill="#818181"/>
<path d="M11.6721 11.3281V6.72259H12.0979C12.1861 6.72263 12.2722 6.69571 12.3442 6.64554C12.4162 6.59537 12.4706 6.52443 12.4998 6.44255C12.529 6.36066 12.5317 6.27187 12.5073 6.18846C12.483 6.10504 12.4329 6.03112 12.364 5.97692L8.10616 2.62749C8.03064 2.56804 7.93678 2.53564 7.84004 2.53564C7.7433 2.53564 7.64945 2.56804 7.57393 2.62749L3.31612 5.97692C3.24719 6.03112 3.1971 6.10504 3.17276 6.18846C3.14842 6.27187 3.15105 6.36066 3.18027 6.44255C3.20949 6.52443 3.26387 6.59537 3.33588 6.64554C3.40789 6.69571 3.49398 6.72263 3.58223 6.72259H4.00801V11.3281C4.00801 11.4391 4.05287 11.5456 4.13272 11.6241C4.21257 11.7026 4.32087 11.7467 4.43379 11.7467H11.2463C11.3592 11.7467 11.4675 11.7026 11.5474 11.6241C11.6272 11.5456 11.6721 11.4391 11.6721 11.3281ZM8.6916 10.9094H6.98848V8.39731H8.6916V10.9094ZM10.8205 6.30391V10.9094H9.54317V7.97863C9.54317 7.86759 9.49831 7.76109 9.41846 7.68258C9.33861 7.60406 9.23031 7.55995 9.11739 7.55995H6.5627C6.44977 7.55995 6.34148 7.60406 6.26163 7.68258C6.18178 7.76109 6.13692 7.86759 6.13692 7.97863V10.9094H4.85957V6.30391C4.85957 6.23891 4.84418 6.17481 4.81462 6.11667C4.78506 6.05854 4.74214 6.00797 4.68926 5.96897L7.84004 3.49039L10.9908 5.96897C10.9379 6.00797 10.895 6.05854 10.8655 6.11667C10.8359 6.17481 10.8205 6.23891 10.8205 6.30391Z" fill="#818181"/>
</svg>
