<svg width="256" height="256" viewBox="0 0 256 256" fill="none" xmlns="http://www.w3.org/2000/svg">
<circle cx="128" cy="128" r="127.5" stroke="#C7C7C7" stroke-dasharray="2 2"/>
<circle cx="128.5" cy="128.5" r="112" stroke="#C7C7C7" stroke-dasharray="2 2"/>
<circle cx="130" cy="130" r="92.5" stroke="#C7C7C7" stroke-dasharray="2 2"/>
<path d="M128 86.2142C125.215 86.2142 123.358 84.3571 123.358 81.5714V76.9285C123.358 74.1428 125.215 72.2856 128 72.2856C130.786 72.2856 132.643 74.1428 132.643 76.9285V81.5714C132.643 84.3571 130.786 86.2142 128 86.2142ZM160.5 165.143H95.5004C87.6076 165.143 81.5718 159.107 81.5718 151.214C81.5718 147.036 83.429 143.321 86.679 140.536C92.2504 136.357 95.5004 129.393 95.5004 122.429V113.143C95.5004 108.964 96.429 104.321 98.2861 100.607C99.2147 98.2856 102 97.3571 104.322 98.2856C106.643 99.2142 107.572 102 106.643 104.321C105.25 107.107 104.786 110.357 104.786 113.143V122.429C104.786 132.179 100.143 141.464 92.7147 147.964C91.3218 148.893 90.8576 149.821 90.8576 151.214C90.8576 154 93.179 155.857 95.5004 155.857H160.5C163.286 155.857 165.143 157.714 165.143 160.5C165.143 163.286 163.286 165.143 160.5 165.143ZM159.572 141C157.715 141 156.322 140.071 155.393 138.678C152.608 133.571 150.75 128 150.75 122.429V113.143C150.75 100.607 140.536 90.8571 128 90.8571C123.822 90.8571 119.643 91.7856 115.929 94.1071C113.608 95.4999 110.822 95.0356 109.429 92.7142C108.036 90.3928 108.5 87.6071 110.822 86.2142C115.929 82.9642 121.965 81.5714 128 81.5714C145.643 81.5714 160.036 95.4999 160.5 113.143V122.429C160.5 126.607 161.429 130.321 163.75 134.036C165.143 136.357 164.215 139.143 161.893 140.536C161.429 141 160.5 141 159.572 141ZM128 183.714C120.108 183.714 114.072 177.678 114.072 169.786C114.072 161.893 120.108 155.857 128 155.857C135.893 155.857 141.929 161.893 141.929 169.786C141.929 177.678 135.893 183.714 128 183.714ZM128 165.143C125.215 165.143 123.358 167 123.358 169.786C123.358 172.571 125.215 174.428 128 174.428C130.786 174.428 132.643 172.571 132.643 169.786C132.643 167 130.786 165.143 128 165.143ZM179.072 183.714C177.679 183.714 176.75 183.25 175.822 182.321L73.679 80.1785C71.8218 78.3214 71.8218 75.5356 73.679 73.6785C75.5361 71.8214 78.3218 71.8214 80.179 73.6785L182.322 175.821C184.179 177.678 184.179 180.464 182.322 182.321C181.393 183.25 180.465 183.714 179.072 183.714Z" fill="#C7C7C7"/>
</svg>
