<svg width="32" height="32" viewBox="0 0 32 32" fill="none" xmlns="http://www.w3.org/2000/svg">
<path d="M16 2.69638C12.5145 2.69638 9.68079 5.53007 9.68079 9.01564C9.68079 12.4347 12.3548 15.2019 15.8404 15.3216C15.9468 15.3083 16.0533 15.3083 16.1331 15.3216C16.1597 15.3216 16.173 15.3216 16.1996 15.3216C16.2129 15.3216 16.2129 15.3216 16.2262 15.3216C19.632 15.2019 22.306 12.4347 22.3193 9.01564C22.3193 5.53007 19.4856 2.69638 16 2.69638Z" fill="white"/>
<path d="M22.7584 18.8604C19.0466 16.3859 12.9934 16.3859 9.25511 18.8604C7.56554 19.9912 6.63428 21.5211 6.63428 23.1575C6.63428 24.7938 7.56554 26.3105 9.2418 27.428C11.1043 28.6785 13.5522 29.3038 16.0001 29.3038C18.448 29.3038 20.8959 28.6785 22.7584 27.428C24.4346 26.2972 25.3659 24.7805 25.3659 23.1309C25.3526 21.4945 24.4346 19.9779 22.7584 18.8604Z" fill="white"/>
</svg>
