<svg width="17" height="17" viewBox="0 0 17 17" fill="none" xmlns="http://www.w3.org/2000/svg">
<g clip-path="url(#clip0_161_5726)">
<path d="M16.3542 0.64615C16.4234 0.715482 16.4707 0.803624 16.4903 0.899627C16.5098 0.99563 16.5008 1.09526 16.4642 1.18615L10.6452 15.7331C10.5939 15.8613 10.5083 15.9727 10.3977 16.0553C10.2872 16.1379 10.156 16.1884 10.0186 16.2012C9.88116 16.214 9.7429 16.1887 9.61897 16.128C9.49505 16.0673 9.39027 15.9736 9.31618 15.8572L6.13818 10.8622L1.14318 7.68415C1.02649 7.61013 0.932527 7.50532 0.871646 7.38128C0.810764 7.25723 0.785334 7.11878 0.798161 6.9812C0.810988 6.84362 0.861574 6.71226 0.944337 6.60161C1.0271 6.49096 1.13882 6.40532 1.26718 6.35415L15.8142 0.53715C15.9051 0.500562 16.0047 0.491482 16.1007 0.511038C16.1967 0.530595 16.2848 0.577925 16.3542 0.64715V0.64615ZM7.13618 10.5701L9.89718 14.9081L14.6302 3.07615L7.13618 10.5701ZM13.9232 2.36915L2.09118 7.10215L6.43018 9.86215L13.9232 2.36915Z" fill="white"/>
</g>
<defs>
<clipPath id="clip0_161_5726">
<rect width="16" height="16" fill="white" transform="translate(0.5 0.5)"/>
</clipPath>
</defs>
</svg>
