<svg width="19" height="19" viewBox="0 0 19 19" fill="none" xmlns="http://www.w3.org/2000/svg">
<g clip-path="url(#clip0_121_3812)">
<path d="M17.8117 7.8375L16.0305 7.30312C15.9711 7.06563 15.8523 6.82812 15.7336 6.59063L16.8023 4.9875C16.9805 4.75 16.9211 4.45312 16.743 4.275L14.843 2.375C14.6648 2.19687 14.368 2.1375 14.1898 2.25625L12.5273 3.14688C12.2898 3.02813 12.0523 2.90938 11.8148 2.85L11.4586 0.95C11.3992 0.771875 11.1617 0.59375 10.9242 0.59375H8.19297C7.95547 0.59375 7.71797 0.771875 7.65859 1.00938L7.12422 2.79062C6.88672 2.85 6.64922 2.96875 6.41172 3.0875L4.86797 2.01875C4.63047 1.84063 4.33359 1.9 4.15547 2.07812L2.25547 3.97812C2.07734 4.15625 2.01797 4.45312 2.13672 4.69063L3.02734 6.35313C2.96797 6.53125 2.84922 6.76875 2.73047 7.00625L0.830469 7.3625C0.592969 7.42188 0.355469 7.65938 0.355469 7.89687V10.6281C0.355469 10.8656 0.533594 11.1031 0.771094 11.1625L2.55234 11.6969C2.61172 11.9344 2.73047 12.1719 2.84922 12.4094L1.78047 14.0125C1.60234 14.25 1.66172 14.5469 1.83984 14.725L3.85859 16.625C3.97734 16.7437 4.09609 16.8031 4.27422 16.8031C4.39297 16.8031 4.45234 16.8031 4.57109 16.7437L6.23359 15.8531C6.47109 15.9719 6.70859 16.0906 6.94609 16.15L7.30234 18.05C7.36172 18.2875 7.59922 18.525 7.83672 18.525H10.568C10.8055 18.525 11.043 18.3469 11.1023 18.1094L11.6367 16.3281C11.8742 16.2688 12.1117 16.15 12.3492 16.0312L13.9523 17.1C14.0711 17.1594 14.1305 17.2188 14.2492 17.2188C14.368 17.2188 14.5461 17.1594 14.6648 17.0406L16.5648 15.1406C16.743 14.9625 16.8023 14.6656 16.6836 14.4875L15.793 12.825C15.9117 12.5875 16.0305 12.35 16.0898 12.1125L17.9898 11.7562C18.2273 11.6969 18.4648 11.4594 18.4648 11.2219V8.49062C18.2273 8.13438 18.0492 7.89687 17.8117 7.8375ZM17.0992 10.6281L16.2086 10.8063L15.4367 10.925C15.3773 10.925 15.318 10.9844 15.2586 10.9844C15.0805 11.6375 14.843 12.2312 14.4273 12.825C14.4273 12.8844 14.4867 12.9437 14.4867 13.0031L14.9023 13.775L15.318 14.4875L14.0117 15.7937L13.2992 15.3187L12.5867 14.8438C12.5273 14.7844 12.468 14.7844 12.4086 14.7844C11.8148 15.1406 11.2211 15.3781 10.568 15.4969C10.5086 15.5563 10.5086 15.6156 10.5086 15.675L10.2711 16.5062L10.0336 17.3375H8.19297L8.01484 16.4469L7.83672 15.6156C7.83672 15.5562 7.77734 15.4969 7.77734 15.4375C7.12422 15.2594 6.53047 14.9625 5.93672 14.6062C5.87734 14.6062 5.81797 14.6656 5.75859 14.6656L4.98672 15.0813L4.27422 15.4969L2.96797 14.1906L3.44297 13.4781L3.91797 12.7656C3.97734 12.7063 3.97734 12.6469 3.97734 12.5875C3.62109 11.9938 3.38359 11.4 3.26484 10.7469C3.32422 10.6875 3.26484 10.6875 3.20547 10.6875L2.37422 10.45L1.54297 10.2125V8.37188L2.43359 8.19375L3.26484 8.01562C3.32422 8.01562 3.38359 7.95625 3.44297 7.95625C3.62109 7.30312 3.85859 6.70937 4.27422 6.11562C4.27422 6.05625 4.21484 5.99687 4.21484 5.9375L3.73984 5.225L3.32422 4.5125L4.63047 3.20625L5.34297 3.68125L6.05547 4.15625C6.11484 4.21563 6.17422 4.21563 6.23359 4.21563C6.82734 3.85938 7.42109 3.62188 8.07422 3.50312C8.13359 3.44375 8.13359 3.38437 8.13359 3.325L8.37109 2.49375L8.60859 1.6625H10.4492L10.6273 2.55313L10.8055 3.38437C10.8055 3.44375 10.8648 3.50312 10.8648 3.5625C11.518 3.74062 12.1117 3.97813 12.7055 4.39375C12.7648 4.39375 12.8242 4.33438 12.8836 4.33438L13.6555 3.91875L14.368 3.50312L15.6742 4.80938L15.1992 5.52187L14.7242 6.23438C14.6648 6.29375 14.6648 6.35313 14.6648 6.4125C15.0211 7.00625 15.2586 7.6 15.3773 8.25312C15.3773 8.3125 15.4367 8.3125 15.4367 8.3125L16.268 8.55L17.0992 8.7875V10.6281Z" fill="#031D4D"/>
<path d="M9.32227 5.64062C7.18477 5.64062 5.46289 7.3625 5.46289 9.5C5.46289 11.6375 7.18477 13.3594 9.32227 13.3594C11.4598 13.3594 13.1816 11.6375 13.1816 9.5C13.241 7.3625 11.4598 5.64062 9.32227 5.64062ZM9.32227 12.2906C7.77852 12.2906 6.53164 11.0437 6.53164 9.5C6.53164 7.95625 7.77852 6.70938 9.32227 6.70938C10.866 6.70938 12.1129 7.95625 12.1129 9.5C12.1129 11.0437 10.866 12.2906 9.32227 12.2906Z" fill="#031D4D"/>
</g>
<defs>
<clipPath id="clip0_121_3812">
<rect width="19" height="19" fill="white"/>
</clipPath>
</defs>
</svg>
