<svg width="25" height="24" viewBox="0 0 25 24" fill="none" xmlns="http://www.w3.org/2000/svg">
<path d="M8.625 9H16.625M8.625 13H14.625M18.625 4C19.4206 4 20.1837 4.31607 20.7463 4.87868C21.3089 5.44129 21.625 6.20435 21.625 7V15C21.625 15.7956 21.3089 16.5587 20.7463 17.1213C20.1837 17.6839 19.4206 18 18.625 18H13.625L8.625 21V18H6.625C5.82935 18 5.06629 17.6839 4.50368 17.1213C3.94107 16.5587 3.625 15.7956 3.625 15V7C3.625 6.20435 3.94107 5.44129 4.50368 4.87868C5.06629 4.31607 5.82935 4 6.625 4H18.625Z" stroke="#818181" stroke-width="2" stroke-linecap="round" stroke-linejoin="round"/>
</svg>
