<svg width="19" height="18" viewBox="0 0 19 18" fill="none" xmlns="http://www.w3.org/2000/svg">
<path d="M18.0409 12.8191C15.6489 12.4254 14.5709 9.97529 14.5273 9.87128C14.5239 9.86458 14.5217 9.85787 14.5172 9.85116C14.3953 9.6029 14.3663 9.39825 14.4334 9.24281C14.5642 8.9364 15.0652 8.77761 15.3962 8.67249C15.4924 8.6423 15.5829 8.61322 15.6579 8.58415C15.9844 8.45554 16.217 8.31576 16.3713 8.15808C16.5547 7.96909 16.5905 7.78793 16.5883 7.67051C16.5827 7.38423 16.3635 7.12926 16.0135 7.00513C15.8961 6.95705 15.7608 6.93133 15.6243 6.93133C15.5315 6.93133 15.3928 6.94363 15.262 7.00513C14.9824 7.13597 14.7319 7.20754 14.5161 7.21761C14.402 7.21202 14.3215 7.18741 14.269 7.16393C14.2757 7.0521 14.2824 6.93692 14.2902 6.81838L14.2936 6.76694C14.3707 5.55584 14.4658 4.04952 14.0654 3.15489C13.7915 2.54207 13.4236 2.01537 12.9706 1.58818C12.5915 1.23033 12.1509 0.939579 11.6611 0.724869C10.8101 0.349127 10.0162 0.293213 9.61804 0.293213H9.61692C9.60127 0.293213 9.58673 0.293213 9.57331 0.293213C9.4626 0.294332 9.28256 0.296567 9.26578 0.296567C8.86879 0.296567 8.0737 0.35248 7.22045 0.728224C6.73176 0.942936 6.29339 1.23257 5.91542 1.59042C5.46475 2.0176 5.09795 2.5432 4.82509 3.15378C4.42475 4.04728 4.5198 5.5536 4.59585 6.76358V6.76582C4.60367 6.89554 4.61262 7.03085 4.62045 7.16281C4.5623 7.18853 4.46724 7.21761 4.32746 7.21761C4.10156 7.21761 3.83318 7.14604 3.53012 7.00401C3.44066 6.96264 3.3389 6.94139 3.22707 6.94139C3.04703 6.94139 2.8558 6.99395 2.69141 7.09124C2.48341 7.21313 2.34922 7.38423 2.31232 7.57545C2.28883 7.7007 2.28995 7.95008 2.56728 8.20281C2.72049 8.34148 2.94414 8.47008 3.23378 8.58414C3.30982 8.61434 3.4004 8.64229 3.49546 8.67249C3.82647 8.77761 4.32858 8.9364 4.45941 9.24281C4.52539 9.39825 4.49632 9.6029 4.37442 9.85116C4.37107 9.85787 4.36772 9.86457 4.36548 9.87128C4.33417 9.94285 4.04901 10.5859 3.46414 11.2647C3.13202 11.6505 2.76634 11.9737 2.37718 12.2241C1.90191 12.5306 1.38862 12.7296 0.850723 12.818C0.639368 12.8526 0.4884 13.0405 0.500701 13.2541C0.504056 13.3156 0.518593 13.3771 0.544314 13.4364V13.4375C0.630421 13.6377 0.828357 13.8065 1.15042 13.9552C1.54406 14.1375 2.13227 14.2907 2.90053 14.4104C2.93967 14.4842 2.97993 14.6687 3.00789 14.7951C3.03696 14.9293 3.06715 15.0679 3.11077 15.2144C3.15774 15.3732 3.27851 15.5633 3.59051 15.5633C3.70905 15.5633 3.84436 15.5365 4.00204 15.5063C4.2324 15.4616 4.54776 15.4001 4.94028 15.4001C5.15834 15.4001 5.38423 15.4191 5.61124 15.4571C6.04961 15.5298 6.42759 15.7959 6.86484 16.1046C7.50449 16.5564 8.22914 17.0674 9.33624 17.0674C9.36643 17.0674 9.39662 17.0663 9.42682 17.0641C9.4626 17.0663 9.50845 17.0674 9.55542 17.0674C10.6625 17.0674 11.3872 16.5564 12.0268 16.1057L12.0279 16.1046C12.4652 15.7971 12.8432 15.5309 13.2815 15.4582C13.5085 15.4202 13.7344 15.4012 13.9525 15.4012C14.3282 15.4012 14.6257 15.4493 14.8907 15.5007C15.0641 15.5343 15.1983 15.551 15.3023 15.551H15.3123H15.3224C15.5505 15.551 15.7183 15.4258 15.782 15.2077C15.8245 15.0635 15.8547 14.9293 15.8849 14.7917C15.9106 14.6732 15.9531 14.4831 15.9911 14.4093C16.7594 14.2885 17.3476 14.1364 17.7412 13.9541C18.0622 13.8054 18.2601 13.6365 18.3462 13.4375C18.3719 13.3782 18.3876 13.3167 18.391 13.253C18.4033 13.0416 18.2523 12.8526 18.0409 12.8191Z" fill="#BF3D1A"/>
</svg>
