<svg width="16" height="16" viewBox="0 0 16 16" fill="none" xmlns="http://www.w3.org/2000/svg">
<g clip-path="url(#clip0_161_6006)">
<path fill-rule="evenodd" clip-rule="evenodd" d="M7.99935 1.99984C4.68564 1.99984 1.99935 4.68613 1.99935 7.99984C1.99935 11.3135 4.68564 13.9998 7.99935 13.9998C11.3131 13.9998 13.9993 11.3135 13.9993 7.99984C13.9993 4.68613 11.3131 1.99984 7.99935 1.99984ZM0.666016 7.99984C0.666016 3.94975 3.94926 0.666504 7.99935 0.666504C12.0494 0.666504 15.3327 3.94975 15.3327 7.99984C15.3327 12.0499 12.0494 15.3332 7.99935 15.3332C3.94926 15.3332 0.666016 12.0499 0.666016 7.99984Z" fill="#3576BA"/>
<path fill-rule="evenodd" clip-rule="evenodd" d="M8.00065 3.3335C8.36884 3.3335 8.66732 3.63197 8.66732 4.00016V7.58814L10.9655 8.73721C11.2948 8.90187 11.4283 9.30232 11.2636 9.63164C11.0989 9.96096 10.6985 10.0944 10.3692 9.92978L7.70251 8.59645C7.47665 8.48352 7.33398 8.25268 7.33398 8.00016V4.00016C7.33398 3.63197 7.63246 3.3335 8.00065 3.3335Z" fill="#3576BA"/>
</g>
<defs>
<clipPath id="clip0_161_6006">
<rect width="16" height="16" fill="white"/>
</clipPath>
</defs>
</svg>
