<svg width="13" height="13" viewBox="0 0 13 13" fill="none" xmlns="http://www.w3.org/2000/svg">
<g clip-path="url(#clip0_161_6037)">
<path d="M6.51172 0C2.92174 0 0.0117188 2.91027 0.0117188 6.5C0.0117188 10.0897 2.92174 13 6.51172 13C10.1017 13 13.0117 10.0897 13.0117 6.5C13.0117 2.91027 10.1014 0 6.51172 0Z" fill="#57B236"/>
<path d="M0.0117261 6.5C0.0101109 7.57466 0.276172 8.63279 0.785886 9.57887C1.43509 9.76948 2.10828 9.86602 2.78489 9.86553C6.69251 9.86553 9.86024 6.6978 9.86024 2.79018C9.8606 2.10326 9.76096 1.41994 9.56444 0.761723C8.62505 0.260498 7.57647 -0.00114418 6.51173 3.76116e-06C2.92175 3.76116e-06 0.0117261 2.91028 0.0117261 6.5Z" fill="#6FBA47"/>
<path d="M10.2185 5.42397L6.31143 9.52684C6.20503 9.63855 6.07716 9.72761 5.93549 9.7887C5.79382 9.84978 5.64127 9.88162 5.487 9.88231H5.48167C5.32825 9.88234 5.1764 9.85155 5.03512 9.79175C4.89385 9.73195 4.76603 9.64436 4.65926 9.5342L2.58612 7.39834C2.479 7.29082 2.39431 7.16309 2.33695 7.02257C2.27959 6.88206 2.25072 6.73155 2.25199 6.57978C2.25327 6.42801 2.28468 6.27801 2.3444 6.13848C2.40411 5.99894 2.49095 5.87266 2.59986 5.76696C2.70878 5.66126 2.8376 5.57824 2.97886 5.52273C3.12011 5.46721 3.27099 5.4403 3.42272 5.44357C3.57446 5.44683 3.72404 5.4802 3.86278 5.54173C4.00152 5.60327 4.12665 5.69175 4.23092 5.80203L5.47354 7.08223L8.55825 3.84315C8.66205 3.73413 8.7863 3.64662 8.92392 3.58563C9.06153 3.52463 9.20981 3.49134 9.3603 3.48765C9.51078 3.48396 9.66052 3.50995 9.80096 3.56412C9.9414 3.6183 10.0698 3.69961 10.1788 3.80341C10.2878 3.90721 10.3753 4.03146 10.4363 4.16908C10.4973 4.30669 10.5306 4.45498 10.5343 4.60546C10.538 4.75594 10.512 4.90568 10.4578 5.04612C10.4036 5.18656 10.3223 5.31495 10.2185 5.42397Z" fill="white"/>
</g>
<defs>
<clipPath id="clip0_161_6037">
<rect width="13" height="13" fill="white"/>
</clipPath>
</defs>
</svg>
