<svg width="18" height="17" viewBox="0 0 18 17" fill="none" xmlns="http://www.w3.org/2000/svg">
<path d="M12.5607 10.1496L12.5545 10.2012C11.0396 9.44619 10.8811 9.34561 10.6855 9.63909C10.5498 9.84232 10.1543 10.3032 10.0352 10.4396C9.9146 10.5739 9.79473 10.5843 9.59013 10.4913C9.38345 10.3879 8.72004 10.1709 7.93468 9.46824C7.32293 8.92056 6.91234 8.24887 6.79109 8.0422C6.58924 7.69361 7.01154 7.64401 7.39595 6.91652C7.46484 6.77185 7.42971 6.65818 7.37873 6.55553C7.32706 6.4522 6.91578 5.4395 6.74356 5.0358C6.57822 4.63348 6.40806 4.68446 6.28061 4.68446C5.8838 4.65001 5.59377 4.65552 5.33818 4.92144C4.22628 6.14357 4.50667 7.40427 5.45805 8.74489C7.32775 11.1919 8.32391 11.6424 10.1454 12.268C10.6373 12.4243 11.0857 12.4023 11.4405 12.3513C11.836 12.2886 12.6578 11.8546 12.8294 11.3689C13.005 10.8833 13.005 10.4802 12.9534 10.3872C12.9024 10.2942 12.7674 10.2426 12.5607 10.1496Z" fill="#BF3D1A"/>
<path d="M14.6364 2.66931C9.33939 -2.45135 0.573025 1.26256 0.56958 8.48646C0.56958 9.93041 0.947791 11.3385 1.66839 12.582L0.5 16.8271L4.86424 15.689C10.3101 18.6306 17.0311 14.7245 17.0338 8.49059C17.0338 6.30262 16.1796 4.24347 14.6261 2.69618L14.6364 2.66931ZM15.6574 8.46786C15.6532 13.7263 9.88087 17.0103 5.31547 14.3263L5.06747 14.1789L2.48406 14.8506L3.17641 12.3395L3.01176 12.0812C0.170702 7.5585 3.43475 1.64766 8.81651 1.64766C10.6449 1.64766 12.3609 2.36068 13.6533 3.65238C14.945 4.93307 15.6574 6.64914 15.6574 8.46786Z" fill="#BF3D1A"/>
</svg>
